<svg height="395.94667pt" viewBox="0 0 395.94667 395.94667" width="395.94667pt" xmlns="http://www.w3.org/2000/svg"><path d="m389.121094 197.972656c0 105.566406-85.582032 191.148438-191.148438 191.148438s-191.144531-85.582032-191.144531-191.148438 85.578125-191.144531 191.144531-191.144531 191.148438 85.578125 191.148438 191.144531zm0 0" fill="#94c1ff"/><path d="m197.972656 395.945312c-109.164062 0-197.972656-88.8125-197.972656-197.972656s88.808594-197.972656 197.972656-197.972656c109.164063 0 197.972656 88.8125 197.972656 197.972656s-88.808593 197.972656-197.972656 197.972656zm0-382.292968c-101.632812 0-184.320312 82.6875-184.320312 184.320312 0 101.632813 82.6875 184.320313 184.320312 184.320313 101.632813 0 184.320313-82.6875 184.320313-184.320313 0-101.632812-82.6875-184.320312-184.320313-184.320312zm0 0" fill="#0e65e5"/><path d="m197.972656 368.640625c-102.132812 0-185.542968-80.101563-190.867187-180.90625-.179688 3.390625-.277344 6.800781-.277344 10.238281 0 105.566406 85.578125 191.148438 191.144531 191.148438s191.148438-85.582032 191.148438-191.148438c0-3.4375-.101563-6.847656-.28125-10.238281-5.320313 100.804687-88.734375 180.90625-190.867188 180.90625zm0 0" fill="#0f65e5"/><path d="m197.972656 395.945312c-109.164062 0-197.972656-88.8125-197.972656-197.972656 0-3.558594.105469-7.085937.289062-10.597656.195313-3.628906 3.1875-6.46875 6.816407-6.46875 3.632812 0 6.628906 2.839844 6.816406 6.46875 5.164063 97.816406 86.007813 174.4375 184.050781 174.4375 98.042969 0 178.886719-76.621094 184.050782-174.4375.191406-3.628906 3.1875-6.46875 6.816406-6.46875s6.625 2.839844 6.816406 6.46875c.1875 3.511719.289062 7.039062.289062 10.597656 0 109.160156-88.808593 197.972656-197.972656 197.972656zm-141.199218-79.617187c33.835937 40.304687 84.574218 65.964844 141.199218 65.964844s107.363282-25.660157 141.199219-65.964844c-35.988281 36.570313-86.066406 59.136719-141.199219 59.136719-55.132812 0-105.207031-22.566406-141.199218-59.136719zm0 0" fill="#0e65e5"/><path d="m40.960938 204.800781c-3.769532 0-6.828126-3.054687-6.828126-6.828125 0-90.339844 73.5-163.839844 163.839844-163.839844 3.769532 0 6.828125 3.054688 6.828125 6.828126 0 3.773437-3.058593 6.824218-6.828125 6.824218-82.8125 0-150.1875 67.375-150.1875 150.1875 0 3.773438-3.054687 6.828125-6.824218 6.828125zm0 0" fill="#fff"/><path d="m189.898438 273.953125c-2.03125-2.105469-3.019532-4.679687-2.957032-7.707031l1.988282-102.492188c.058593-3.027344 1.144531-5.59375 3.253906-7.707031 2.113281-2.113281 4.679687-3.140625 7.707031-3.082031 3.1875.058594 5.796875 1.152344 7.828125 3.261718 2.027344 2.109376 3.015625 4.757813 2.953125 7.945313l-1.988281 102.492187c-.058594 3.027344-1.183594 5.5625-3.375 7.585938-2.191406 2.035156-4.800782 3.015625-7.828125 2.953125-3.027344-.0625-5.554688-1.136719-7.582031-3.25zm1.445312-148.394531c-2.34375-2.441406-3.484375-5.332032-3.417969-8.679688l.015625-.953125c.070313-3.347656 1.316406-6.1875 3.75-8.519531 2.4375-2.347656 5.324219-3.488281 8.671875-3.421875l1.433594.027344c3.347656.066406 6.191406 1.316406 8.53125 3.753906 2.34375 2.425781 3.480469 5.3125 3.414063 8.660156l-.015626.953125c-.066406 3.347656-1.3125 6.195313-3.746093 8.539063-2.4375 2.339843-5.328125 3.488281-8.675781 3.421875l-1.433594-.027344c-3.34375-.066406-6.183594-1.320312-8.527344-3.753906zm0 0" fill="#0e65e5"/><path d="m307.199219 395.945312h-95.574219c-3.769531 0-6.824219-3.050781-6.824219-6.824218 0-3.773438 3.054688-6.828125 6.824219-6.828125h95.574219c3.769531 0 6.828125 3.054687 6.828125 6.828125 0 3.773437-3.058594 6.824218-6.828125 6.824218zm0 0" fill="#0e65e5"/><g fill="#fff"><path d="m293.546875 354.988281c-3.769531 0-6.828125-3.054687-6.828125-6.828125v-27.308594c0-3.773437 3.058594-6.824218 6.828125-6.824218s6.828125 3.050781 6.828125 6.824218v27.308594c0 3.773438-3.058594 6.828125-6.828125 6.828125zm0 0"/><path d="m307.199219 341.332031h-27.304688c-3.769531 0-6.828125-3.050781-6.828125-6.824219 0-3.773437 3.058594-6.828124 6.828125-6.828124h27.304688c3.769531 0 6.828125 3.054687 6.828125 6.828124 0 3.773438-3.058594 6.824219-6.828125 6.824219zm0 0"/></g></svg>