<?xml version="1.0" encoding="UTF-8" standalone="no"?>
<!-- Created with Inkscape (http://www.inkscape.org/) -->

<svg
   xmlns:dc="http://purl.org/dc/elements/1.1/"
   xmlns:cc="http://creativecommons.org/ns#"
   xmlns:rdf="http://www.w3.org/1999/02/22-rdf-syntax-ns#"
   xmlns:svg="http://www.w3.org/2000/svg"
   xmlns="http://www.w3.org/2000/svg"
   xmlns:sodipodi="http://sodipodi.sourceforge.net/DTD/sodipodi-0.dtd"
   xmlns:inkscape="http://www.inkscape.org/namespaces/inkscape"
   width="899.96875"
   height="599.91669"
   id="svg2"
   sodipodi:version="0.32"
   inkscape:version="0.48.2 r9819"
   version="1.0"
   sodipodi:docname="Flag_of_Amazonas_State.svg">
  <defs
     id="defs4" />
  <sodipodi:namedview
     id="base"
     pagecolor="#ffffff"
     bordercolor="#666666"
     borderopacity="1.0"
     inkscape:pageopacity="0.0"
     inkscape:pageshadow="2"
     inkscape:zoom="0.17486703"
     inkscape:cx="411.77745"
     inkscape:cy="196.70113"
     inkscape:document-units="px"
     inkscape:current-layer="layer1"
     borderlayer="top"
     inkscape:window-width="1280"
     inkscape:window-height="974"
     inkscape:window-x="-8"
     inkscape:window-y="-8"
     showgrid="false"
     fit-margin-top="0"
     fit-margin-left="0"
     fit-margin-right="0"
     fit-margin-bottom="0"
     inkscape:window-maximized="1" />
  <metadata
     id="metadata7">
    <rdf:RDF>
      <cc:Work
         rdf:about="">
        <dc:format>image/svg+xml</dc:format>
        <dc:type
           rdf:resource="http://purl.org/dc/dcmitype/StillImage" />
      </cc:Work>
    </rdf:RDF>
  </metadata>
  <g
     inkscape:label="Calque 1"
     inkscape:groupmode="layer"
     id="layer1"
     transform="translate(-149.79592,91.820932)">
    <g
       id="g4268"
       transform="matrix(0.99986113,0,0,0.99986113,-677.17227,314.19024)">
      <g
         id="g12775"
         transform="translate(2571.5518,-2094.2514)">
        <rect
           style="fill:#00247d;fill-opacity:1"
           id="rect5621-740"
           height="210"
           width="900"
           x="-1744.4167"
           y="1688.1838" />
        <rect
           style="fill:#008033;fill-opacity:1;stroke:#000000;stroke-width:0.1;stroke-miterlimit:4;stroke-opacity:1;stroke-dasharray:none"
           id="rect5623-94"
           height="210"
           width="900"
           y="1888.1838"
           x="-1744.4167" />
        <rect
           style="fill:#cf142b;fill-opacity:1"
           id="rect5625-8"
           height="200"
           width="900"
           y="2088.1838"
           x="-1744.4167" />
      </g>
      <g
         transform="translate(-712.43917,-662.55236)"
         id="g4226">
        <path
           inkscape:connector-curvature="0"
           style="fill:#784421;fill-opacity:1;fill-rule:evenodd;stroke:#ffcc00;stroke-width:4;stroke-linecap:butt;stroke-linejoin:miter;stroke-miterlimit:4;stroke-opacity:1;stroke-dasharray:none"
           d="m 2017.887,767.7043 c -9.4932,1.98751 -8.3442,-5.42591 -4.137,-11.21535 1.7723,-5.89248 -1.5021,-15.80064 -7.8855,-15.60696 -21.3301,0.14949 -30.3307,30.43696 -53.4513,17.25574 -12.9803,-12.21491 -33.5102,-21.52716 -38.4352,-39.80866 -6.5841,-23.05474 -14.631,-45.6603 -22.3824,-68.34082 2.884,-17.97543 -22.6761,-29.30099 -34.8716,-39.24501 -4.0471,-1.93922 -18.7877,0.80879 -14.7094,-4.69193 8.8452,-9.78552 20.7494,-16.63849 30.793,-25.2752 5.7132,-4.03859 20.2219,-13.80991 8.3003,-19.28198 -12.652,-0.54885 -3.9858,-14.08103 -11.7807,-16.20745 4.2211,-7.42757 -20.702,1.70918 -10.4738,-13.01446 -11.4836,-0.93944 3.225,-15.58546 -8.786,-20.51475 -8.1176,-9.55645 -5.6397,-24.00881 -8.7545,-35.22496 1.6888,-7.26626 7.4258,-11.87172 4.331,-20.74516 0.554,-10.16546 -3.2505,-19.41242 -5.0009,-29.20711 4.8006,-10.34331 22.8691,-10.77523 16.1734,-25.31905 -2.2543,-7.20079 -0.5671,-12.78524 6.3928,-16.20749 11.9915,-4.02271 6.154,-15.50114 12.0153,-21.94956 19.1253,-5.74049 21.1802,17.06836 17.1507,29.62388 4.6415,5.93865 10.9304,5.78826 17.6521,4.03895 8.9247,-1.11157 17.8563,-2.16878 26.7837,-3.25934 6.8361,-8.91869 21.1323,-19.26279 20.269,-1.55918 12.1741,2.30995 23.5266,1.89467 25.8722,-12.04688 -2.9166,-17.0679 30.4354,-21.89039 24.0207,-5.10377 -14.6532,11.66565 7.6739,33.68717 15.5915,14.81191 5.9017,3.03866 18.1343,2.30382 10.9141,10.13453 4.6834,5.45234 18.7641,30.44573 2.3266,26.75071 -17.6574,2.37091 9.7442,23.29848 8.5875,34.25114 4.9245,14.7945 17.2267,21.95663 32.1971,19.66756 3.1268,10.27912 4.3342,28.84266 -11.9281,19.11637 -1.4112,13.3196 14.0406,17.31377 16.8218,29.27065 8.2521,14.23904 32.3995,14.37745 26.2498,35.92142 -7.3762,22.26951 15.6492,33.1583 17.9438,52.75995 9.2704,10.44177 -16.0171,19.65818 4.1554,19.61122 12.4626,9.03402 42.1576,-6.86343 43.1902,13.67457 -9.7872,6.63956 -21.7245,11.99714 -29.3879,18.23478 -23.9302,-9.83408 -22.1607,19.05992 -26.9119,32.88837 -12.3303,3.06728 -28.1115,-3.18824 -30.5772,15.64637 -5.9298,14.87787 -25.0011,0.22855 -34.7368,11.96768 -14.4767,2.29759 -8.4196,24.93825 -25.7261,19.48944 -0.7672,6.57151 -3.9662,13.35603 -7.7957,18.70983 z"
           id="path1332" />
        <path
           inkscape:connector-curvature="0"
           style="fill:#ffcc00;fill-opacity:1;fill-rule:evenodd;stroke:none"
           d="m 2029.1812,695.36392 c -16.8718,-0.25196 -32.8125,0.97656 -38.4766,-5.07813 -5.793,-6.19255 -10.5469,-16.60156 -10.7422,-24.60938 -0.1953,-8.00781 -1.3672,-32.42187 -0.3906,-37.69531 0.7005,-3.78289 4.8498,-16.11486 11.9141,-21.67969 6.992,-5.50793 18.1321,-8.62563 36.3281,-8.98437 18.1647,-0.35812 32.8125,1.5625 39.2578,9.96094 6.4453,8.39843 11.7187,17.57812 11.7187,35.9375 0,11.91566 -1.1718,32.42187 -5.0781,39.45312 -3.9062,7.03125 -7.4219,9.96094 -11.7187,11.13281 -4.2969,1.17188 -16.5982,1.80465 -32.8125,1.56251 z"
           id="path4000"
           sodipodi:nodetypes="cssssssssss" />
        <path
           inkscape:connector-curvature="0"
           style="fill:#cf142b;fill-opacity:1;fill-rule:evenodd;stroke:none"
           d="m 2029.1812,707.86391 c -10.441,0.43222 -24.6094,-15.625 -24.6094,-15.625 0,0 -11.1328,-11.71875 -9.9609,-29.49218 1.1718,-17.77344 8.789,-22.46095 8.789,-22.46095 l 47.8516,0.19532 c 0,0 9.375,4.10156 10.3515,11.13281 1.2198,8.78255 0,27.34375 -4.2968,33.59375 -4.2969,6.25 -19.6281,22.30451 -28.125,22.65625 z"
           id="path3992"
           sodipodi:nodetypes="ccsccsss" />
        <path
           sodipodi:type="star"
           style="color:#000000;fill:#ffffff;fill-opacity:1;fill-rule:evenodd;stroke:none;stroke-width:8;marker:none;visibility:visible;display:inline;overflow:visible"
           id="path3083"
           sodipodi:sides="5"
           sodipodi:cx="320.70312"
           sodipodi:cy="136.40625"
           sodipodi:r1="16.801416"
           sodipodi:r2="5.9813046"
           sodipodi:arg1="0.95054684"
           sodipodi:arg2="1.5788654"
           inkscape:flatsided="false"
           inkscape:rounded="0"
           inkscape:randomized="0"
           d="m 330.46875,150.07812 -9.81389,-7.69076 -9.93672,7.53139 4.2817,-11.71014 -10.2334,-7.12305 12.46012,0.4535 3.61213,-11.93368 3.41909,11.99042 12.46581,-0.25237 -10.34701,6.95699 z"
           transform="translate(1604.3765,297.23892)" />
        <path
           sodipodi:type="star"
           style="color:#000000;fill:#ffffff;fill-opacity:1;fill-rule:evenodd;stroke:none;stroke-width:8;marker:none;visibility:visible;display:inline;overflow:visible"
           id="path3958"
           sodipodi:sides="5"
           sodipodi:cx="320.70312"
           sodipodi:cy="136.40625"
           sodipodi:r1="16.801416"
           sodipodi:r2="5.9813046"
           sodipodi:arg1="0.95054684"
           sodipodi:arg2="1.5788654"
           inkscape:flatsided="false"
           inkscape:rounded="0"
           inkscape:randomized="0"
           d="m 330.46875,150.07812 -9.81389,-7.69076 -9.93672,7.53139 4.2817,-11.71014 -10.2334,-7.12305 12.46012,0.4535 3.61213,-11.93368 3.41909,11.99042 12.46581,-0.25237 -10.34701,6.95699 z"
           transform="translate(1682.4596,296.85029)" />
        <path
           sodipodi:type="star"
           style="color:#000000;fill:#ffffff;fill-opacity:1;fill-rule:evenodd;stroke:none;stroke-width:8;marker:none;visibility:visible;display:inline;overflow:visible"
           id="path3960"
           sodipodi:sides="5"
           sodipodi:cx="320.70312"
           sodipodi:cy="136.40625"
           sodipodi:r1="16.801416"
           sodipodi:r2="5.9813046"
           sodipodi:arg1="0.95054684"
           sodipodi:arg2="1.5788654"
           inkscape:flatsided="false"
           inkscape:rounded="0"
           inkscape:randomized="0"
           d="m 330.46875,150.07812 -9.81389,-7.69076 -9.93672,7.53139 4.2817,-11.71014 -10.2334,-7.12305 12.46012,0.4535 3.61213,-11.93368 3.41909,11.99042 12.46581,-0.25237 -10.34701,6.95699 z"
           transform="translate(1548.0846,334.74091)" />
        <path
           sodipodi:type="star"
           style="color:#000000;fill:#ffffff;fill-opacity:1;fill-rule:evenodd;stroke:none;stroke-width:8;marker:none;visibility:visible;display:inline;overflow:visible"
           id="path3962"
           sodipodi:sides="5"
           sodipodi:cx="320.70312"
           sodipodi:cy="136.40625"
           sodipodi:r1="16.801416"
           sodipodi:r2="5.9813046"
           sodipodi:arg1="0.95054684"
           sodipodi:arg2="1.5788654"
           inkscape:flatsided="false"
           inkscape:rounded="0"
           inkscape:randomized="0"
           d="m 330.46875,150.07812 -9.81389,-7.69076 -9.93672,7.53139 4.2817,-11.71014 -10.2334,-7.12305 12.46012,0.4535 3.61213,-11.93368 3.41909,11.99042 12.46581,-0.25237 -10.34701,6.95699 z"
           transform="translate(1585.9752,390.60029)" />
        <path
           sodipodi:type="star"
           style="color:#000000;fill:#ffffff;fill-opacity:1;fill-rule:evenodd;stroke:none;stroke-width:8;marker:none;visibility:visible;display:inline;overflow:visible"
           id="path3964"
           sodipodi:sides="5"
           sodipodi:cx="320.70312"
           sodipodi:cy="136.40625"
           sodipodi:r1="16.801416"
           sodipodi:r2="5.9813046"
           sodipodi:arg1="0.95054684"
           sodipodi:arg2="1.5788654"
           inkscape:flatsided="false"
           inkscape:rounded="0"
           inkscape:randomized="0"
           d="m 330.46875,150.07812 -9.81389,-7.69076 -9.93672,7.53139 4.2817,-11.71014 -10.2334,-7.12305 12.46012,0.4535 3.61213,-11.93368 3.41909,11.99042 12.46581,-0.25237 -10.34701,6.95699 z"
           transform="translate(1575.0377,466.77219)" />
        <path
           sodipodi:type="star"
           style="color:#000000;fill:#ffffff;fill-opacity:1;fill-rule:evenodd;stroke:none;stroke-width:8;marker:none;visibility:visible;display:inline;overflow:visible"
           id="path3966"
           sodipodi:sides="5"
           sodipodi:cx="320.70312"
           sodipodi:cy="136.40625"
           sodipodi:r1="16.801416"
           sodipodi:r2="5.9813046"
           sodipodi:arg1="0.95054684"
           sodipodi:arg2="1.5788654"
           inkscape:flatsided="false"
           inkscape:rounded="0"
           inkscape:randomized="0"
           d="m 330.46875,150.07812 -9.81389,-7.69076 -9.93672,7.53139 4.2817,-11.71014 -10.2334,-7.12305 12.46012,0.4535 3.61213,-11.93368 3.41909,11.99042 12.46581,-0.25237 -10.34701,6.95699 z"
           transform="translate(1637.1471,579.66279)" />
        <path
           sodipodi:type="star"
           style="color:#000000;fill:#ffffff;fill-opacity:1;fill-rule:evenodd;stroke:none;stroke-width:8;marker:none;visibility:visible;display:inline;overflow:visible"
           id="path3968"
           sodipodi:sides="5"
           sodipodi:cx="320.70312"
           sodipodi:cy="136.40625"
           sodipodi:r1="16.801416"
           sodipodi:r2="5.9813046"
           sodipodi:arg1="0.95054684"
           sodipodi:arg2="1.5788654"
           inkscape:flatsided="false"
           inkscape:rounded="0"
           inkscape:randomized="0"
           d="m 330.46875,150.07812 -9.81389,-7.69076 -9.93672,7.53139 4.2817,-11.71014 -10.2334,-7.12305 12.46012,0.4535 3.61213,-11.93368 3.41909,11.99042 12.46581,-0.25237 -10.34701,6.95699 z"
           transform="translate(1786.3658,513.25649)" />
        <g
           id="g8420"
           transform="translate(1604.7671,298.41079)"
           style="stroke:#ffcc00;stroke-opacity:1">
          <path
             inkscape:connector-curvature="0"
             id="path6650"
             d="m 374.80469,220.19531 c 0,0 -5.85938,10.35156 -12.10938,17.96875 -6.25,7.61719 -11.32812,12.10938 -15.23437,12.30469 -3.90625,0.19531 -11.32813,-0.97656 -14.84375,1.36719 -3.51563,2.34375 -9.57031,5.85937 -9.57031,5.85937 0,0 11.13281,-4.6875 13.08593,-4.6875 1.95313,0 7.42188,0.58594 6.44532,1.36719 -0.97657,0.78125 -6.25,0.58594 -5.85938,4.49219 0.39063,3.90625 -0.39062,8.98437 0.97656,9.375 1.36719,0.39062 2.34375,-1.95313 2.34375,1.17187 0,3.125 2.53907,6.05469 0.39063,6.83594 -2.14844,0.78125 -9.375,4.29687 -6.44531,4.6875 2.92968,0.39062 -0.78125,5.27344 3.32031,5.85937 4.10156,0.58594 8.59375,0.97657 9.375,-1.17187 0.78125,-2.14844 -1.75781,-7.42188 -1.36719,-9.17969 0.39063,-1.75781 -0.39062,-5.66406 2.14844,-7.8125 2.53906,-2.14844 9.57031,-13.67187 11.91406,-14.64844 2.34375,-0.97656 14.25781,-14.45312 14.25781,-17.77343 0,-3.32032 1.36719,-15.82032 1.17188,-16.01563 z"
             style="fill:#ffd610;fill-opacity:1;fill-rule:evenodd;stroke:#ffcc00;stroke-opacity:1" />
          <path
             inkscape:connector-curvature="0"
             sodipodi:nodetypes="csscssssscssssssssc"
             id="path6652"
             d="m 400.19531,245.19531 c -4.6875,-4.6875 -29.10156,15.03906 -31.44531,18.75 -2.34375,3.71094 -23.82812,30.27344 -22.07031,32.8125 1.75781,2.53906 21.28906,2.14844 21.28906,2.14844 0,0 21.875,-1.36719 24.02344,-4.10156 2.14844,-2.73438 7.8125,-13.67188 8.59375,-16.60157 0.78125,-2.92968 -0.97656,-11.71875 3.125,-14.0625 4.10156,-2.34375 5.66406,-9.375 8.98437,-9.375 3.32032,0 9.17969,-1.75781 13.08594,-1.75781 3.90625,0 7.61719,-0.97656 7.61719,-0.97656 0,0 -16.60156,-1.17188 -18.75,0 -2.14844,1.17187 -8.98438,3.71094 -12.69531,8.20312 -3.71094,4.49219 -14.64844,23.24219 -15.42969,23.82813 -0.78125,0.58594 -4.83398,0.43945 -5.66406,-2.92969 -0.83008,-3.36914 -1.17188,-5.07812 2.34375,-10.54687 3.51562,-5.46875 12.30468,-13.86719 14.45312,-17.38282 2.14844,-3.51562 5.66406,-4.10156 4.6875,-4.88281 -0.97656,-0.78125 -0.19531,0.78125 -0.78125,-0.97656 -0.58594,-1.75781 -1.75781,-2.34375 -1.36719,-2.14844 z"
             style="fill:#ffd610;fill-opacity:1;fill-rule:evenodd;stroke:#ffcc00;stroke-opacity:1" />
          <g
             style="fill:none;stroke:#ffcc00;stroke-width:1.77165353;stroke-miterlimit:4;stroke-opacity:1;stroke-dasharray:none"
             id="g6666">
            <path
               inkscape:connector-curvature="0"
               style="fill:none;stroke:#ffcc00;stroke-width:1.77165353;stroke-linecap:butt;stroke-linejoin:miter;stroke-miterlimit:4;stroke-opacity:1;stroke-dasharray:none"
               d="m 326.17188,249.49219 c 0,0 4.29687,-4.10157 8.20312,-3.51563 3.90625,0.58594 9.96094,0.39063 13.67188,-2.14844 3.71093,-2.53906 9.17968,-8.39843 11.52343,-15.03906 2.34375,-6.64062 8.59375,-24.41406 8.59375,-27.73437 0,-3.32032 0.58594,-29.49219 3.125,-30.07813 2.53907,-0.58594 1.5625,0.39063 2.53907,-0.58594 0.97656,-0.97656 0.97656,-0.97656 0.97656,-0.97656 l 3.71094,-0.19531"
               id="path6654" />
            <path
               inkscape:connector-curvature="0"
               style="fill:none;stroke:#ffcc00;stroke-width:1.77165353;stroke-linecap:butt;stroke-linejoin:miter;stroke-miterlimit:4;stroke-opacity:1;stroke-dasharray:none"
               d="m 377.73438,179.76562 c 0,0 -1.5625,16.60157 -1.75782,21.09375 -0.19531,4.49219 -1.5625,15.23438 -1.5625,15.23438"
               id="path6656" />
            <path
               inkscape:connector-curvature="0"
               style="fill:none;stroke:#ffcc00;stroke-width:1.77165353;stroke-linecap:butt;stroke-linejoin:miter;stroke-miterlimit:4;stroke-opacity:1;stroke-dasharray:none"
               d="m 386.13281,181.52344 c 0.19532,6.64062 -2.14843,8.39843 -2.73437,13.67187 -0.58594,5.27344 -0.58594,22.07031 -0.58594,22.07031"
               id="path6658" />
            <path
               inkscape:connector-curvature="0"
               style="fill:none;stroke:#ffcc00;stroke-width:1.77165353;stroke-linecap:butt;stroke-linejoin:miter;stroke-miterlimit:4;stroke-opacity:1;stroke-dasharray:none"
               d="m 397.65625,190.11719 c 0,0 -0.58594,4.29687 3.90625,14.0625 4.49219,9.76562 15.03906,31.05468 19.92188,36.32812 4.88281,5.27344 11.52343,11.52344 11.52343,11.52344"
               id="path6660" />
            <path
               inkscape:connector-curvature="0"
               style="fill:none;stroke:#ffcc00;stroke-width:1.77165353;stroke-linecap:butt;stroke-linejoin:miter;stroke-miterlimit:4;stroke-opacity:1;stroke-dasharray:none"
               d="m 397.85156,167.46094 c 0,0 4.29688,-1.36719 7.61719,0.78125 3.32031,2.14843 9.76563,8.39843 10.54688,12.89062 0.78125,4.49219 5.07812,8.78906 5.07812,15.23438 0,6.44531 1.5625,20.89843 6.25,27.53906 4.6875,6.64062 12.89063,12.10937 12.89063,12.10937"
               id="path6662" />
            <path
               inkscape:connector-curvature="0"
               style="fill:none;stroke:#ffcc00;stroke-width:1.77165353;stroke-linecap:butt;stroke-linejoin:miter;stroke-miterlimit:4;stroke-opacity:1;stroke-dasharray:none"
               d="m 378.125,169.02344 c 0,0 -1.75781,-2.14844 2.14844,-3.32032 3.90625,-1.17187 16.79687,-2.14843 17.38281,0 0.58594,2.14844 1.95313,3.90625 -1.5625,5.46875 -3.51562,1.5625 -13.28125,0.97657 -15.625,0.58594 -2.34375,-0.39062 -2.34375,-2.73437 -2.34375,-2.73437 z"
               id="path6664" />
          </g>
        </g>
        <g
           id="g9318"
           transform="translate(1604.7671,298.41079)">
          <g
             id="g4888">
            <g
               id="g4002"
               style="fill:none;stroke:#ffd610;stroke-width:1.77165353;stroke-miterlimit:4;stroke-opacity:1;stroke-dasharray:none">
              <path
                 inkscape:connector-curvature="0"
                 sodipodi:nodetypes="ccccccccc"
                 id="path3970"
                 d="m 403.31442,352.9541 c 2.72976,-0.56537 5.31131,-0.0954 8.08585,-0.34204 1.09022,-0.0737 2.19683,-0.10919 3.27792,0.0661 0.81879,0.38888 0.69584,1.46926 0.7612,2.22984 0.0108,1.17904 -0.0403,2.37864 -0.24379,3.53444 -0.81972,1.65648 -2.26819,3.23173 -4.1969,3.45095 -1.93158,-0.0331 -3.73725,-0.82292 -5.52671,-1.4668 -2.50486,-0.9891 -4.60578,-1.27424 -7.11457,-3.83204 0.50632,-2.29512 3.04882,-3.04624 4.957,-3.64044 z"
                 style="fill:none;stroke:#ffd610;stroke-width:1.77165353;stroke-linecap:butt;stroke-linejoin:miter;stroke-miterlimit:4;stroke-opacity:1;stroke-dasharray:none" />
              <path
                 inkscape:connector-curvature="0"
                 sodipodi:nodetypes="ccccccccc"
                 id="path3974"
                 d="m 444.99092,352.9541 c -2.72976,-0.56537 -5.31131,-0.0954 -8.08585,-0.34204 -1.09022,-0.0737 -2.19683,-0.10919 -3.27792,0.0661 -0.81879,0.38888 -0.69584,1.46926 -0.7612,2.22984 -0.0108,1.17904 0.0403,2.37864 0.24379,3.53444 0.81972,1.65648 2.26819,3.23173 4.1969,3.45095 1.93158,-0.0331 3.73725,-0.82292 5.52671,-1.4668 2.50486,-0.9891 4.60578,-1.27424 7.11457,-3.83204 -0.50632,-2.29512 -3.04882,-3.04624 -4.957,-3.64044 z"
                 style="fill:none;stroke:#ffd610;stroke-width:1.77165353;stroke-linecap:butt;stroke-linejoin:miter;stroke-miterlimit:4;stroke-opacity:1;stroke-dasharray:none" />
              <path
                 inkscape:connector-curvature="0"
                 id="path3976"
                 d="m 415.82031,371.36719 c 0,0 -0.58593,8.98437 7.8125,8.98437 8.39844,0 7.61719,-9.17969 7.61719,-9.17969"
                 style="fill:none;stroke:#ffd610;stroke-width:1.77165353;stroke-linecap:butt;stroke-linejoin:miter;stroke-miterlimit:4;stroke-opacity:1;stroke-dasharray:none" />
              <path
                 inkscape:connector-curvature="0"
                 id="path3978"
                 d="m 412.30469,391.67969 21.28906,0"
                 style="fill:none;stroke:#ffd610;stroke-width:1.77165353;stroke-linecap:butt;stroke-linejoin:miter;stroke-miterlimit:4;stroke-opacity:1;stroke-dasharray:none" />
              <path
                 inkscape:connector-curvature="0"
                 id="path3980"
                 d="m 419.33594,400.66406 10.9375,-0.19531"
                 style="fill:none;stroke:#ffd610;stroke-width:1.77165353;stroke-linecap:butt;stroke-linejoin:miter;stroke-miterlimit:4;stroke-opacity:1;stroke-dasharray:none" />
              <path
                 inkscape:connector-curvature="0"
                 id="path3982"
                 d="m 424.60938,400.46875 -0.19532,27.73437"
                 style="fill:none;stroke:#ffd610;stroke-width:1.77165353;stroke-linecap:butt;stroke-linejoin:miter;stroke-miterlimit:4;stroke-opacity:1;stroke-dasharray:none" />
              <path
                 inkscape:connector-curvature="0"
                 id="path3984"
                 d="m 409.76563,398.75977 -15.625,16.21094"
                 style="fill:none;stroke:#ffd610;stroke-width:1.77165353;stroke-linecap:butt;stroke-linejoin:miter;stroke-miterlimit:4;stroke-opacity:1;stroke-dasharray:none" />
              <path
                 inkscape:connector-curvature="0"
                 id="path3986"
                 d="m 437.89063,398.75976 15.625,16.21095"
                 style="fill:none;stroke:#ffd610;stroke-width:1.77165353;stroke-linecap:butt;stroke-linejoin:miter;stroke-miterlimit:4;stroke-opacity:1;stroke-dasharray:none" />
              <path
                 inkscape:connector-curvature="0"
                 id="path3988"
                 d="m 417.38281,376.83594 -45.89843,0.19531"
                 style="fill:none;stroke:#ffd610;stroke-width:1.77165353;stroke-linecap:butt;stroke-linejoin:miter;stroke-miterlimit:4;stroke-opacity:1;stroke-dasharray:none" />
              <path
                 inkscape:connector-curvature="0"
                 id="path3990"
                 d="m 475.29296,376.73828 -45.89843,0.19531"
                 style="fill:none;stroke:#ffd610;stroke-width:1.77165353;stroke-linecap:butt;stroke-linejoin:miter;stroke-miterlimit:4;stroke-opacity:1;stroke-dasharray:none" />
              <path
                 inkscape:connector-curvature="0"
                 id="path3994"
                 d="m 389.84375,386.01562 68.55469,0.39063"
                 style="fill:none;stroke:#ffd610;stroke-width:1.77165353;stroke-linecap:butt;stroke-linejoin:miter;stroke-miterlimit:4;stroke-opacity:1;stroke-dasharray:none" />
            </g>
            <path
               sodipodi:type="arc"
               style="color:#000000;fill:#ffd610;fill-opacity:1;fill-rule:evenodd;stroke:none;stroke-width:8;marker:none;visibility:visible;display:inline;overflow:visible"
               id="path3996"
               sodipodi:cx="408.69141"
               sodipodi:cy="358.47656"
               sodipodi:rx="3.6132812"
               sodipodi:ry="3.3203125"
               d="m 412.30466,358.48925 c -0.008,1.83375 -1.63152,3.31461 -3.62706,3.3076 -1.98883,-0.007 -3.5976,-1.48958 -3.59947,-3.31716 l 3.61328,-0.003 z"
               sodipodi:start="0.0038222328"
               sodipodi:end="3.1406509"
               transform="translate(-0.585938,-3.710938)" />
            <path
               sodipodi:type="arc"
               style="color:#000000;fill:#ffd610;fill-opacity:1;fill-rule:evenodd;stroke:none;stroke-width:8;marker:none;visibility:visible;display:inline;overflow:visible"
               id="path3998"
               sodipodi:cx="408.69141"
               sodipodi:cy="358.47656"
               sodipodi:rx="3.6132812"
               sodipodi:ry="3.3203125"
               d="m 412.30466,358.48925 c -0.008,1.83375 -1.63152,3.31461 -3.62706,3.3076 -1.98883,-0.007 -3.5976,-1.48958 -3.59947,-3.31716 l 3.61328,-0.003 z"
               sodipodi:start="0.0038222328"
               sodipodi:end="3.1406509"
               transform="translate(31.9336,-3.808595)" />
          </g>
          <path
             inkscape:connector-curvature="0"
             id="path8437"
             d="m 393.35938,359.64844 -11.32813,0"
             style="fill:#fcd00f;fill-opacity:1;fill-rule:evenodd;stroke:#fcd00f;stroke-width:1.77165353;stroke-linecap:butt;stroke-linejoin:miter;stroke-miterlimit:4;stroke-opacity:1;stroke-dasharray:none" />
          <path
             inkscape:connector-curvature="0"
             id="path8439"
             d="m 454.29688,359.64843 8.20312,0"
             style="fill:#fcd00f;fill-opacity:1;fill-rule:evenodd;stroke:#fcd00f;stroke-width:1.77165353;stroke-linecap:butt;stroke-linejoin:miter;stroke-miterlimit:4;stroke-opacity:1;stroke-dasharray:none" />
          <path
             inkscape:connector-curvature="0"
             id="path8441"
             d="m 400,366.58204 -16.79687,10.54687"
             style="fill:#fcd00f;fill-opacity:1;fill-rule:evenodd;stroke:#fcd00f;stroke-width:1.77165353;stroke-linecap:butt;stroke-linejoin:miter;stroke-miterlimit:4;stroke-opacity:1;stroke-dasharray:none" />
          <path
             inkscape:connector-curvature="0"
             id="path8443"
             d="m 445.89845,366.58203 16.79687,10.54687"
             style="fill:#fcd00f;fill-opacity:1;fill-rule:evenodd;stroke:#fcd00f;stroke-width:1.77165353;stroke-linecap:butt;stroke-linejoin:miter;stroke-miterlimit:4;stroke-opacity:1;stroke-dasharray:none" />
        </g>
      </g>
    </g>
  </g>
</svg>
