<?xml version="1.0" encoding="UTF-8" standalone="no"?>
<!-- Created with Inkscape (http://www.inkscape.org/) -->

<svg
   xmlns:dc="http://purl.org/dc/elements/1.1/"
   xmlns:cc="http://creativecommons.org/ns#"
   xmlns:rdf="http://www.w3.org/1999/02/22-rdf-syntax-ns#"
   xmlns:svg="http://www.w3.org/2000/svg"
   xmlns="http://www.w3.org/2000/svg"
   xmlns:sodipodi="http://sodipodi.sourceforge.net/DTD/sodipodi-0.dtd"
   xmlns:inkscape="http://www.inkscape.org/namespaces/inkscape"
   version="1.0"
   width="899.96875"
   height="599.91669"
   id="svg2"
   inkscape:version="0.48.2 r9819"
   sodipodi:docname="Flag_of_Anzoátegui_State.svg">
  <metadata
     id="metadata120">
    <rdf:RDF>
      <cc:Work
         rdf:about="">
        <dc:format>image/svg+xml</dc:format>
        <dc:type
           rdf:resource="http://purl.org/dc/dcmitype/StillImage" />
      </cc:Work>
    </rdf:RDF>
  </metadata>
  <sodipodi:namedview
     pagecolor="#ffffff"
     bordercolor="#666666"
     borderopacity="1"
     objecttolerance="10"
     gridtolerance="10"
     guidetolerance="10"
     inkscape:pageopacity="0"
     inkscape:pageshadow="2"
     inkscape:window-width="1280"
     inkscape:window-height="974"
     id="namedview118"
     showgrid="false"
     inkscape:zoom="0.24074571"
     inkscape:cx="449.0337"
     inkscape:cy="307.10144"
     inkscape:window-x="-8"
     inkscape:window-y="-8"
     inkscape:window-maximized="1"
     inkscape:current-layer="svg2"
     fit-margin-top="0"
     fit-margin-left="0"
     fit-margin-right="0"
     fit-margin-bottom="0" />
  <defs
     id="defs4">
    <inkscape:perspective
       sodipodi:type="inkscape:persp3d"
       inkscape:vp_x="0 : 266.25 : 1"
       inkscape:vp_y="0 : 1000 : 0"
       inkscape:vp_z="800 : 266.25 : 1"
       inkscape:persp3d-origin="400 : 177.5 : 1"
       id="perspective122" />
  </defs>
  <g
     id="g3703"
     transform="matrix(0.99986113,0,0,0.99986113,-989.36259,436.01909)">
    <rect
       y="-436.07965"
       x="989.53564"
       width="900"
       height="210"
       id="rect5621-740"
       style="fill:#00247d;fill-opacity:1" />
    <rect
       x="989.53564"
       y="-236.07967"
       width="900"
       height="210"
       id="rect5623-94"
       style="fill:#ffcc00;fill-opacity:1;stroke:#000000;stroke-width:0.1;stroke-miterlimit:4;stroke-opacity:1;stroke-dasharray:none" />
    <rect
       x="989.53564"
       y="-36.079662"
       width="900"
       height="200"
       id="rect5625-8"
       style="fill:#008033;fill-opacity:1" />
    <path
       d="m 1420.6158,-301.28476 c 26.395,0 12.3177,14.07728 22.2891,17.01004 9.9714,2.93276 23.4621,1.17316 32.2605,5.86559 8.7983,4.69243 8.7983,15.25037 12.3176,18.76971 3.5193,3.51927 12.9042,8.2117 11.1445,15.83689 -1.7596,7.62526 3.5193,19.94287 9.3849,23.46221 5.8655,3.51927 8.2117,7.62519 2.3462,12.90413 -5.8656,5.279 -18.7698,14.66386 -15.2504,22.28905 3.5193,7.62518 7.6252,11.7311 19.3563,12.90419 11.731,1.17309 19.3562,-0.58658 25.2218,7.62519 5.8655,8.21177 35.7797,22.87563 36.9528,31.67391 1.1731,8.79828 1.1731,19.35629 7.0387,20.52938 5.8655,1.17309 29.3277,-4.69243 33.4335,0.58658 4.1059,5.27894 -3.5192,7.03861 -2.9327,12.904132 0.5865,5.86558 4.6924,13.49077 11.1445,14.66386 6.4521,1.17309 32.2605,5.86552 32.847,12.9042 0.5866,7.03861 2.9327,17.59662 -8.7983,19.942801 -11.7311,2.34625 -26.3949,4.69243 -31.0873,1.17309 -4.6924,-3.519271 -5.8656,-9.384861 -17.0101,-5.278941 -11.1446,4.105851 -15.2504,21.115891 -34.0201,22.289051 -18.7697,1.17309 -30.5008,-7.62525 -39.8857,0.58651 -9.3849,8.21177 -11.731,28.1545693 -22.8756,29.9142393 -11.1445,1.75967004 -26.9814,4.10585 -34.6066,-2.93276 -7.6252,-7.0386693 -2.9328,-13.4906993 -8.2118,-13.4906993 -5.2789,0 -14.0773,4.10585 -24.0486,8.798279 -9.9715,4.6924203 -17.5967,1.1730903 -18.7698,8.2117603 -1.1731,7.03861 19.3563,10.5579502 9.9714,14.6638007 -9.3848,4.10592 0.5866,12.90419 -8.7983,12.90419 -9.3848,0 -31.0873,17.59663 -43.405,12.9042 -12.3176,-4.69243 -15.2504,-14.66387 -24.6352,-17.59662 -9.3849,-2.93276 -25.2218,-7.03861 -31.6739,-7.03861 -6.4521,0 -21.1159,-1.75967 -21.7025,-12.3176907 -0.5866,-10.55794 5.8655,-18.7697093 11.1445,-25.8083193 5.279,-7.03868 26.3949,-29.327661 28.7412,-42.818431 2.3462,-13.49071 -2.9328,-35.193182 5.2789,-36.366342 8.2118,-1.17309 42.2319,2.34625 46.9243,-2.93276 4.6924,-5.27894 1.7597,-17.59662 -4.1058,-22.87556 -5.8656,-5.27901 -17.0101,-9.38486 -17.0101,-12.9042 0,-3.51934 3.5193,-11.14452 -3.5193,-14.07728 -7.0386,-2.93276 -22.8756,0 -29.3277,-6.4521 -6.4521,-6.4521 -18.7697,-22.87556 -10.558,-26.98148 8.2118,-4.10585 14.0773,-7.03861 6.4521,-14.07729 -7.6252,-7.0386 -16.4235,-15.25037 -24.6352,-15.25037 -8.2118,0 -21.116,11.73104 -28.7412,4.10585 -7.6252,-7.62519 -2.3462,-15.83696 -2.9327,-21.70247 -0.5866,-5.86552 -5.8656,-11.14453 -5.8656,-15.83696 0,-4.69243 0.5866,-14.07728 9.9715,-14.07728 9.3848,0 11.731,-8.21177 17.5965,-11.14453 5.8656,-2.93276 7.6253,-8.21177 19.9429,-5.86552 12.3176,2.34618 63.9343,9.97144 71.5595,4.69243 7.6252,-5.27901 12.9042,-21.70247 18.7697,-21.70247 5.8655,0 12.9042,0 12.3176,-0.58658 z"
       style="fill:none;stroke:#000000;stroke-width:7.00979996px;stroke-linecap:butt;stroke-linejoin:miter;stroke-opacity:1"
       id="path1349"
       inkscape:connector-curvature="0" />
    <g
       transform="matrix(1.0865463,0,0,1.0865463,127.48227,-148.08517)"
       id="g3594">
      <g
         transform="matrix(0.693762,0,0,0.693762,171.6485,-331.34944)"
         style="fill:#008033;fill-opacity:1;stroke:#32530b;stroke-opacity:1"
         id="g2233">
        <path
           d="m 1085.4972,325.88515 -1.6567,2.84006 c 0,0 -12.1887,-3.07674 -14.5554,-3.78675 -2.3667,-0.71002 -24.8506,-9.58523 -24.8506,-9.58523 l -6.6268,-0.23667 c 0,0 -1.5384,3.19508 -8.9935,2.84007 -7.4552,-0.35501 -16.0937,-4.2601 -16.0937,-4.2601 l 6.7451,-0.59168 0.2367,-2.24839 c 0,0 -4.0234,-2.72173 -6.6268,-3.43175 -2.6034,-0.71001 -7.3369,-3.78675 -7.3369,-3.78675 0,0 2.2484,-1.53837 4.1418,-1.53837 1.8934,0 3.9051,0.11833 3.9051,0.11833 l -12.0703,-14.55534 c 0,0 17.6321,6.50849 21.0638,9.46689 3.4318,2.9584 7.5735,6.50849 7.5735,6.50849 l 6.8635,0.82835 0.2367,0.59168 -2.0117,-5.32512 c 0,0 9.9402,4.6151 12.4253,7.92852 2.485,3.31341 5.0884,8.04685 5.0884,8.04685 l 9.4669,4.49677 c 0,0 14.792,3.66842 17.2771,3.78676 2.4851,0.11834 6.7452,0.71002 6.7452,0.71002 l -0.9467,1.18336 z"
           style="fill:#008033;fill-opacity:1;fill-rule:evenodd;stroke:#32530b;stroke-width:1px;stroke-linecap:butt;stroke-linejoin:miter;stroke-opacity:1"
           id="path2227"
           inkscape:connector-curvature="0" />
        <path
           d="m 1030.4709,311.56648 c 0,0 -9.5853,-4.14177 -11.0053,-4.73345 -1.42,-0.59168 -5.9168,-4.85178 -5.9168,-4.85178"
           style="fill:#008033;fill-opacity:1;stroke:#32530b;stroke-width:1px;stroke-linecap:butt;stroke-linejoin:miter;stroke-opacity:1"
           id="path2229"
           inkscape:connector-curvature="0" />
        <path
           d="m 1041.9495,311.92149 c 0,0 -2.2484,-2.36673 -2.9584,-3.55009 -0.71,-1.18336 -2.0117,-3.66842 -2.0117,-3.66842"
           style="fill:#008033;fill-opacity:1;stroke:#32530b;stroke-width:1px;stroke-linecap:butt;stroke-linejoin:miter;stroke-opacity:1"
           id="path2231"
           inkscape:connector-curvature="0" />
      </g>
      <g
         transform="matrix(0.693762,0,0,0.693762,171.6485,-331.34944)"
         style="stroke:#32530b;stroke-opacity:1"
         id="g2246">
        <path
           d="m 1001.0052,276.894 c -0.71,-0.35501 -17.6321,-12.7803 -19.28881,-17.0404 -1.6567,-4.2601 -7.57351,-18.69711 -7.57351,-18.69711 0,0 5.5618,3.90509 6.50849,5.08845 0.94668,1.18336 4.73344,5.20679 4.73344,5.20679 l 0.35501,-3.07674 c 0,0 -6.27182,-4.2601 -9.8219,-11.4786 -3.55008,-7.2185 -4.02343,-17.75042 -4.02343,-17.75042 0,0 6.62683,6.03515 7.57351,7.21851 0.94669,1.18336 4.02343,4.2601 4.02343,4.2601 l -0.23667,-4.49678 c 0,0 -6.74516,-3.90509 -10.53191,-12.54362 -3.78676,-8.63854 -1.77505,-17.98709 -1.77505,-17.98709 0,0 4.49678,4.73344 4.49678,5.9168 0,1.18336 2.48506,3.90509 2.48506,3.90509 0,0 -0.94669,-9.34855 -0.82836,-12.07028 0.11834,-2.72173 -0.59168,-11.59694 -0.59168,-11.59694 0,0 4.2601,2.84007 4.49677,5.20679 0.23668,2.36672 2.01172,4.61511 2.01172,4.61511 0,0 0.71001,-5.44346 2.84007,-8.04686 2.13005,-2.60339 3.19507,-10.76858 3.19507,-10.76858 0,0 3.90509,12.89863 2.72173,18.81544 -1.18336,5.9168 -3.55008,16.09371 -3.55008,16.09371 l 2.84006,0.23667 c 0,0 -0.71001,-3.90509 0.47335,-7.33684 1.18336,-3.43174 2.9584,-8.5202 2.9584,-8.5202 0,0 4.49677,10.53192 4.14177,17.27708 -0.35501,6.74515 -3.9051,14.79201 -3.9051,14.79201 0,0 0.59168,5.08845 -0.23667,9.34855 -0.82835,4.2601 -3.55008,8.75688 -3.55008,8.75688 0,0 2.48506,1.18336 3.07674,2.01171 0.59168,0.82835 1.18336,2.9584 1.18336,2.9584 0,0 -0.82835,-1.6567 1.42003,-4.85178 2.24839,-3.19507 3.55006,-4.85178 2.24839,-3.43175 -1.3017,1.42004 2.72177,-2.13005 2.72177,-1.6567 0,0.47334 2.2483,4.97012 2.3667,8.40186 0.1183,3.43175 -2.7218,11.83361 -2.7218,11.83361 l 2.0118,-4.85178 c 0,0 3.7867,2.72173 5.3251,6.03515 1.5384,3.31341 -0.71,14.31866 -0.71,14.31866 l -6.8635,3.9051 z"
           style="fill:#008033;fill-opacity:1;fill-rule:evenodd;stroke:#32530b;stroke-width:1px;stroke-linecap:butt;stroke-linejoin:miter;stroke-opacity:1"
           id="path2238"
           inkscape:connector-curvature="0" />
        <path
           d="m 992.83999,265.88874 c 0,0 -2.6034,-1.53837 -4.02343,-5.44346 -1.42004,-3.90509 -1.53837,-25.79728 -1.53837,-25.79728 0,0 8.40186,13.96367 8.75687,17.0404 0.35501,3.07674 4.49674,13.37199 4.49674,13.37199"
           style="fill:none;stroke:#32530b;stroke-width:1px;stroke-linecap:butt;stroke-linejoin:miter;stroke-opacity:1"
           id="path2240"
           inkscape:connector-curvature="0" />
        <path
           d="m 986.80484,203.52561 c 0,0 -0.71001,-2.84007 -0.94668,-5.20679 -0.23668,-2.36672 -2.6034,-5.68014 -2.6034,-5.68014"
           style="fill:none;stroke:#32530b;stroke-width:1px;stroke-linecap:butt;stroke-linejoin:miter;stroke-opacity:1"
           id="path2242"
           inkscape:connector-curvature="0" />
        <path
           d="m 984.91147,216.42424 c 0,0 -2.48506,-3.78675 -3.19508,-6.27181 -0.71002,-2.48506 -3.90509,-4.37844 -3.90509,-4.37844"
           style="fill:none;stroke:#32530b;stroke-width:1px;stroke-linecap:butt;stroke-linejoin:miter;stroke-opacity:1"
           id="path2244"
           inkscape:connector-curvature="0" />
      </g>
      <g
         transform="matrix(-0.693762,0,0,0.693762,1635.0222,-331.34944)"
         style="fill:#008033;fill-opacity:1;stroke:#32530b;stroke-opacity:1"
         id="g2294">
        <path
           d="m 1085.4972,325.88515 -1.6567,2.84006 c 0,0 -12.1887,-3.07674 -14.5554,-3.78675 -2.3667,-0.71002 -24.8506,-9.58523 -24.8506,-9.58523 l -6.6268,-0.23667 c 0,0 -1.5384,3.19508 -8.9935,2.84007 -7.4552,-0.35501 -16.0937,-4.2601 -16.0937,-4.2601 l 6.7451,-0.59168 0.2367,-2.24839 c 0,0 -4.0234,-2.72173 -6.6268,-3.43175 -2.6034,-0.71001 -7.3369,-3.78675 -7.3369,-3.78675 0,0 2.2484,-1.53837 4.1418,-1.53837 1.8934,0 3.9051,0.11833 3.9051,0.11833 l -12.0703,-14.55534 c 0,0 17.6321,6.50849 21.0638,9.46689 3.4318,2.9584 7.5735,6.50849 7.5735,6.50849 l 6.8635,0.82835 0.2367,0.59168 -2.0117,-5.32512 c 0,0 9.9402,4.6151 12.4253,7.92852 2.485,3.31341 5.0884,8.04685 5.0884,8.04685 l 9.4669,4.49677 c 0,0 14.792,3.66842 17.2771,3.78676 2.4851,0.11834 6.7452,0.71002 6.7452,0.71002 l -0.9467,1.18336 z"
           style="fill:#008033;fill-opacity:1;fill-rule:evenodd;stroke:#32530b;stroke-width:1px;stroke-linecap:butt;stroke-linejoin:miter;stroke-opacity:1"
           id="path2296"
           inkscape:connector-curvature="0" />
        <path
           d="m 1030.4709,311.56648 c 0,0 -9.5853,-4.14177 -11.0053,-4.73345 -1.42,-0.59168 -5.9168,-4.85178 -5.9168,-4.85178"
           style="fill:#008033;fill-opacity:1;stroke:#32530b;stroke-width:1px;stroke-linecap:butt;stroke-linejoin:miter;stroke-opacity:1"
           id="path2298"
           inkscape:connector-curvature="0" />
        <path
           d="m 1041.9495,311.92149 c 0,0 -2.2484,-2.36673 -2.9584,-3.55009 -0.71,-1.18336 -2.0117,-3.66842 -2.0117,-3.66842"
           style="fill:#008033;fill-opacity:1;stroke:#32530b;stroke-width:1px;stroke-linecap:butt;stroke-linejoin:miter;stroke-opacity:1"
           id="path2300"
           inkscape:connector-curvature="0" />
      </g>
      <g
         transform="matrix(-0.693762,0,0,0.693762,1635.0222,-331.34944)"
         style="fill:#008033;fill-opacity:1;stroke:#32530b;stroke-opacity:1"
         id="g2302">
        <path
           d="m 1001.0052,276.894 c -0.71,-0.35501 -17.6321,-12.7803 -19.28881,-17.0404 -1.6567,-4.2601 -7.57351,-18.69711 -7.57351,-18.69711 0,0 5.5618,3.90509 6.50849,5.08845 0.94668,1.18336 4.73344,5.20679 4.73344,5.20679 l 0.35501,-3.07674 c 0,0 -6.27182,-4.2601 -9.8219,-11.4786 -3.55008,-7.2185 -4.02343,-17.75042 -4.02343,-17.75042 0,0 6.62683,6.03515 7.57351,7.21851 0.94669,1.18336 4.02343,4.2601 4.02343,4.2601 l -0.23667,-4.49678 c 0,0 -6.74516,-3.90509 -10.53191,-12.54362 -3.78676,-8.63854 -1.77505,-17.98709 -1.77505,-17.98709 0,0 4.49678,4.73344 4.49678,5.9168 0,1.18336 2.48506,3.90509 2.48506,3.90509 0,0 -0.94669,-9.34855 -0.82836,-12.07028 0.11834,-2.72173 -0.59168,-11.59694 -0.59168,-11.59694 0,0 4.2601,2.84007 4.49677,5.20679 0.23668,2.36672 2.01172,4.61511 2.01172,4.61511 0,0 0.71001,-5.44346 2.84007,-8.04686 2.13005,-2.60339 3.19507,-10.76858 3.19507,-10.76858 0,0 3.90509,12.89863 2.72173,18.81544 -1.18336,5.9168 -3.55008,16.09371 -3.55008,16.09371 l 2.84006,0.23667 c 0,0 -0.71001,-3.90509 0.47335,-7.33684 1.18336,-3.43174 2.9584,-8.5202 2.9584,-8.5202 0,0 4.49677,10.53192 4.14177,17.27708 -0.35501,6.74515 -3.9051,14.79201 -3.9051,14.79201 0,0 0.59168,5.08845 -0.23667,9.34855 -0.82835,4.2601 -3.55008,8.75688 -3.55008,8.75688 0,0 2.48506,1.18336 3.07674,2.01171 0.59168,0.82835 1.18336,2.9584 1.18336,2.9584 0,0 -0.82835,-1.6567 1.42003,-4.85178 2.24839,-3.19507 3.55006,-4.85178 2.24839,-3.43175 -1.3017,1.42004 2.72177,-2.13005 2.72177,-1.6567 0,0.47334 2.2483,4.97012 2.3667,8.40186 0.1183,3.43175 -2.7218,11.83361 -2.7218,11.83361 l 2.0118,-4.85178 c 0,0 3.7867,2.72173 5.3251,6.03515 1.5384,3.31341 -0.71,14.31866 -0.71,14.31866 l -6.8635,3.9051 z"
           style="fill:#008033;fill-opacity:1;fill-rule:evenodd;stroke:#32530b;stroke-width:1px;stroke-linecap:butt;stroke-linejoin:miter;stroke-opacity:1"
           id="path2304"
           inkscape:connector-curvature="0" />
        <path
           d="m 992.83999,265.88874 c 0,0 -2.6034,-1.53837 -4.02343,-5.44346 -1.42004,-3.90509 -1.53837,-25.79728 -1.53837,-25.79728 0,0 8.40186,13.96367 8.75687,17.0404 0.35501,3.07674 4.49674,13.37199 4.49674,13.37199"
           style="fill:#008033;fill-opacity:1;stroke:#32530b;stroke-width:1px;stroke-linecap:butt;stroke-linejoin:miter;stroke-opacity:1"
           id="path2306"
           inkscape:connector-curvature="0" />
        <path
           d="m 986.80484,203.52561 c 0,0 -0.71001,-2.84007 -0.94668,-5.20679 -0.23668,-2.36672 -2.6034,-5.68014 -2.6034,-5.68014"
           style="fill:#008033;fill-opacity:1;stroke:#32530b;stroke-width:1px;stroke-linecap:butt;stroke-linejoin:miter;stroke-opacity:1"
           id="path2308"
           inkscape:connector-curvature="0" />
        <path
           d="m 984.91147,216.42424 c 0,0 -2.48506,-3.78675 -3.19508,-6.27181 -0.71002,-2.48506 -3.90509,-4.37844 -3.90509,-4.37844"
           style="fill:#008033;fill-opacity:1;stroke:#32530b;stroke-width:1px;stroke-linecap:butt;stroke-linejoin:miter;stroke-opacity:1"
           id="path2310"
           inkscape:connector-curvature="0" />
      </g>
      <g
         transform="matrix(-0.693762,0,0,0.693762,1635.0222,-331.34944)"
         id="g2312">
        <path
           d="m 986.09483,275.11895 c 0,0 1.18336,2.72174 -0.71002,6.74516 -1.89338,4.02343 -3.31341,6.98183 -3.31341,6.98183 0,0 -3.62409,-3.38178 -7.2185,-0.23667 -1.89338,1.65671 -3.05513,4.25617 0.23667,8.16519 1.89338,2.24839 4.40119,3.85678 7.81018,0.71002 3.07674,-2.84007 1.77505,-4.97012 1.77505,-4.97012 l 13.84532,2.01172 c 0,0 2.60338,2.24838 4.73348,1.18336 2.13,-1.06503 2.3667,-3.78676 2.3667,-3.78676 l 106.1475,-60.23308 c 0,0 1.065,1.42003 3.6684,0.35501 2.6034,-1.06503 2.6034,-1.06503 2.6034,-1.06503 l -0.4734,-2.36672 4.2601,-1.53837 c 0,0 1.5384,1.42004 3.9051,-0.11833 2.3668,-1.53837 2.6034,-5.68014 1.5384,-7.33684 -1.065,-1.65671 -6.5085,-10.29524 -6.5085,-10.29524 0,0 -2.3667,-2.6034 -4.9701,-1.06503 -2.6034,1.53837 -2.7217,4.14177 -2.7217,4.14177 l -3.6684,2.13005 c 0,0 -0.5917,-2.01172 -3.5501,-0.59169 -2.9584,1.42004 -2.0117,3.66842 -2.0117,3.66842 l -111.70933,54.31628 c 0,0 -1.53837,-2.24839 -4.14176,-1.18336 -2.6034,1.06502 -2.95841,2.72173 -1.89338,4.37843 z"
           style="fill:#9e5f08;fill-opacity:1;fill-rule:evenodd;stroke:#713506;stroke-width:1px;stroke-linecap:butt;stroke-linejoin:miter;stroke-opacity:1"
           id="path2314"
           inkscape:connector-curvature="0" />
        <path
           d="m 986.3315,276.06564 12.18862,18.46044"
           style="fill:#9e5f08;fill-opacity:1;fill-rule:evenodd;stroke:#713506;stroke-width:1px;stroke-linecap:butt;stroke-linejoin:miter;stroke-opacity:1"
           id="path2316"
           inkscape:connector-curvature="0" />
        <path
           d="m 991.89329,272.16055 13.60861,20.11714"
           style="fill:#9e5f08;fill-opacity:1;fill-rule:evenodd;stroke:#713506;stroke-width:1px;stroke-linecap:butt;stroke-linejoin:miter;stroke-opacity:1"
           id="path2318"
           inkscape:connector-curvature="0" />
        <path
           d="m 1103.9576,217.6076 7.8102,14.20034"
           style="fill:#9e5f08;fill-opacity:1;fill-rule:evenodd;stroke:#713506;stroke-width:1px;stroke-linecap:butt;stroke-linejoin:miter;stroke-opacity:1"
           id="path2320"
           inkscape:connector-curvature="0" />
        <path
           d="m 1109.2827,214.29419 8.2835,14.67368"
           style="fill:#9e5f08;fill-opacity:1;fill-rule:evenodd;stroke:#713506;stroke-width:1px;stroke-linecap:butt;stroke-linejoin:miter;stroke-opacity:1"
           id="path2322"
           inkscape:connector-curvature="0" />
        <path
           d="m 1113.3061,212.16414 8.7569,15.14703"
           style="fill:#9e5f08;fill-opacity:1;fill-rule:evenodd;stroke:#713506;stroke-width:1px;stroke-linecap:butt;stroke-linejoin:miter;stroke-opacity:1"
           id="path2324"
           inkscape:connector-curvature="0" />
      </g>
      <g
         transform="matrix(0.693762,0,0,0.693762,171.6485,-331.34944)"
         id="g2277">
        <path
           d="m 986.09483,275.11895 c 0,0 1.18336,2.72174 -0.71002,6.74516 -1.89338,4.02343 -3.31341,6.98183 -3.31341,6.98183 0,0 -3.62409,-3.38178 -7.2185,-0.23667 -1.89338,1.65671 -3.05513,4.25617 0.23667,8.16519 1.89338,2.24839 4.40119,3.85678 7.81018,0.71002 3.07674,-2.84007 1.77505,-4.97012 1.77505,-4.97012 l 13.84532,2.01172 c 0,0 2.60338,2.24838 4.73348,1.18336 2.13,-1.06503 2.3667,-3.78676 2.3667,-3.78676 l 106.1475,-60.23308 c 0,0 1.065,1.42003 3.6684,0.35501 2.6034,-1.06503 2.6034,-1.06503 2.6034,-1.06503 l -0.4734,-2.36672 4.2601,-1.53837 c 0,0 1.5384,1.42004 3.9051,-0.11833 2.3668,-1.53837 2.6034,-5.68014 1.5384,-7.33684 -1.065,-1.65671 -6.5085,-10.29524 -6.5085,-10.29524 0,0 -2.3667,-2.6034 -4.9701,-1.06503 -2.6034,1.53837 -2.7217,4.14177 -2.7217,4.14177 l -3.6684,2.13005 c 0,0 -0.5917,-2.01172 -3.5501,-0.59169 -2.9584,1.42004 -2.0117,3.66842 -2.0117,3.66842 l -111.70933,54.31628 c 0,0 -1.53837,-2.24839 -4.14176,-1.18336 -2.6034,1.06502 -2.95841,2.72173 -1.89338,4.37843 z"
           style="fill:#9e5f08;fill-opacity:1;fill-rule:evenodd;stroke:#713506;stroke-width:1px;stroke-linecap:butt;stroke-linejoin:miter;stroke-opacity:1"
           id="path2265"
           inkscape:connector-curvature="0" />
        <path
           d="m 986.3315,276.06564 12.18862,18.46044"
           style="fill:#9e5f08;fill-opacity:1;fill-rule:evenodd;stroke:#713506;stroke-width:1px;stroke-linecap:butt;stroke-linejoin:miter;stroke-opacity:1"
           id="path2267"
           inkscape:connector-curvature="0" />
        <path
           d="m 991.89329,272.16055 13.60861,20.11714"
           style="fill:#9e5f08;fill-opacity:1;fill-rule:evenodd;stroke:#713506;stroke-width:1px;stroke-linecap:butt;stroke-linejoin:miter;stroke-opacity:1"
           id="path2269"
           inkscape:connector-curvature="0" />
        <path
           d="m 1103.9576,217.6076 7.8102,14.20034"
           style="fill:#9e5f08;fill-opacity:1;fill-rule:evenodd;stroke:#713506;stroke-width:1px;stroke-linecap:butt;stroke-linejoin:miter;stroke-opacity:1"
           id="path2271"
           inkscape:connector-curvature="0" />
        <path
           d="m 1109.2827,214.29419 8.2835,14.67368"
           style="fill:#9e5f08;fill-opacity:1;fill-rule:evenodd;stroke:#713506;stroke-width:1px;stroke-linecap:butt;stroke-linejoin:miter;stroke-opacity:1"
           id="path2273"
           inkscape:connector-curvature="0" />
        <path
           d="m 1113.3061,212.16414 8.7569,15.14703"
           style="fill:#9e5f08;fill-opacity:1;fill-rule:evenodd;stroke:#713506;stroke-width:1px;stroke-linecap:butt;stroke-linejoin:miter;stroke-opacity:1"
           id="path2275"
           inkscape:connector-curvature="0" />
      </g>
      <path
         d="m 867.3393,-200.82374 c 0,0 18.63604,-24.54703 34.31659,-24.62912 15.68054,-0.0821 36.94372,24.87542 36.94372,24.87542 l -4.76163,5.33631 -0.24629,25.61429 -61.57283,0 0.32836,-25.12171 -5.00792,-6.07519 z"
         style="fill:#ffcc00;fill-opacity:1;fill-rule:evenodd;stroke:none"
         id="path2371"
         inkscape:connector-curvature="0" />
      <g
         transform="matrix(0.693762,0,0,0.693762,171.6485,-331.34944)"
         id="g2217">
        <g
           id="g2201">
          <rect
             width="87.923729"
             height="33.725792"
             x="1009.9987"
             y="232.63629"
             style="color:#000000;fill:#00247d;fill-opacity:1;fill-rule:evenodd;stroke:none;stroke-width:0.35433099;marker:none;visibility:visible;display:inline;overflow:visible"
             id="rect1326" />
          <path
             d="m 1010.7087,261.27363 c 9.2303,1.89338 13.2537,0 14.6737,-0.23667 1.4201,-0.23667 18.1054,0.35501 24.1406,2.36672 6.0351,2.01171 13.727,-2.84007 17.5137,-2.01171 3.7868,0.82835 5.3252,2.72173 8.5202,2.60339 3.1951,-0.11834 8.7569,-3.66842 13.2537,-3.31341 4.4967,0.35501 9.1119,0.71002 9.1119,0.71002 l -0.3551,7.45517 -12.4252,10.76859 -7.5736,-0.59168 -13.7269,2.72173 -10.177,5.20679 -16.4487,-6.74516 -11.2419,-1.42004 -5.4435,0.47335 -11.0052,-10.88692 1.1833,-6.50849 0,-0.59168 z"
             style="fill:#5c8e0b;fill-opacity:1;fill-rule:evenodd;stroke:none"
             id="path1324"
             inkscape:connector-curvature="0" />
        </g>
        <path
           d="m 1045.6179,273.81726 4.7334,0.23667 0.4734,-15.85704 -4.8518,1.18336 -0.355,14.43701 z"
           style="fill:#433f2d;fill-opacity:1;fill-rule:evenodd;stroke:#000000;stroke-width:1px;stroke-linecap:butt;stroke-linejoin:miter;stroke-opacity:1"
           id="path2207"
           inkscape:connector-curvature="0" />
        <path
           d="m 1077.0953,271.09553 -2.4851,0 c 0,0 0.5917,-6.8635 0.2367,-7.81019 -0.355,-0.94669 -4.0234,-6.50848 -4.0234,-6.50848 l 6.7451,-0.47335 0.9467,14.67368 -1.42,0.11834 z"
           style="fill:#433f2d;fill-opacity:1;fill-rule:evenodd;stroke:#000000;stroke-width:1px;stroke-linecap:butt;stroke-linejoin:miter;stroke-opacity:1"
           id="path2211"
           inkscape:connector-curvature="0" />
        <path
           d="m 1029.0508,235.47636 c 0,0 0.355,1.77504 1.0651,2.24838 0.71,0.47335 2.84,1.77504 2.84,1.77504 l -2.7217,1.18337 c 0,0 -1.6567,-1.42004 -1.6567,-2.48506 0,-1.06503 0.4733,-2.6034 0.4733,-2.72173 z"
           style="fill:#000000;fill-opacity:1;fill-rule:evenodd;stroke:#000000;stroke-width:1px;stroke-linecap:butt;stroke-linejoin:miter;stroke-opacity:1"
           id="path2215"
           inkscape:connector-curvature="0" />
        <path
           d="m 1080.2904,247.78331 c 0,0 1.5383,0.11834 1.5383,1.89338 0,1.77504 -1.1833,4.73345 -0.4733,8.99355 0.71,4.2601 1.1834,7.33683 2.13,7.33683 0.9467,0 1.0651,-6.15347 1.0651,-9.46688 0,-3.31342 -0.2367,-8.5202 -1.5384,-10.05857 -1.3017,-1.53837 -3.0767,-4.14177 -6.1535,-4.49678 -3.0767,-0.35501 -12.1886,0.71002 -16.6854,0.71002 -4.4967,0 -13.3719,-1.42003 -18.5787,-2.48506 -5.2068,-1.06502 -8.7569,-2.13005 -10.4136,-1.18336 -1.6567,0.94669 -8.1652,6.50849 -7.5735,8.75687 0.5917,2.24839 2.485,3.55009 3.7867,3.55009 1.3017,0 2.2484,-1.42004 2.8401,-1.06503 0.5917,0.35501 4.3784,5.68013 5.9168,7.2185 1.5384,1.53837 7.1002,5.79847 7.1002,5.79847 l 0,-5.9168 0.4733,18.81544 3.7868,-0.23667 0.4733,-11.71528 c 0,0 1.5384,0.71002 4.1418,-0.71001 2.6034,-1.42004 7.2185,-4.2601 8.5202,-3.9051 1.3017,0.35501 1.8934,1.18337 3.3134,0.94669 1.42,-0.23667 1.6567,-2.01171 2.7217,-2.01171 1.065,0 3.9051,-0.71002 4.0234,-0.23667 0.1184,0.47334 0.3551,1.42003 1.4201,2.01171 1.065,0.59168 4.6151,0.94669 4.7334,2.9584 0.1184,2.01172 0.2367,8.40187 0.2367,8.40187 l -0.9467,1.42003 4.3784,0.11834 0,-11.1236 -0.8283,-0.94669 0,-7.33684 c 0,0 1.065,-2.72173 1.1834,-3.55008 0.1183,-0.82835 -0.4734,-2.48506 -0.5917,-2.48506 z"
           style="fill:#575647;fill-opacity:1;fill-rule:evenodd;stroke:#000000;stroke-width:1px;stroke-linecap:butt;stroke-linejoin:miter;stroke-opacity:1"
           id="path2205"
           inkscape:connector-curvature="0" />
        <path
           d="m 1030.3525,239.49978 c 0,0 -4.9701,-0.47334 -4.9701,-1.89337 0,-1.42004 0,-1.65671 0,-1.65671 l -0.355,3.43175 5.4435,2.36672 1.3017,-1.18336 -1.4201,-1.06503 z"
           style="fill:#000000;fill-opacity:1;fill-rule:evenodd;stroke:#000000;stroke-width:1px;stroke-linecap:butt;stroke-linejoin:miter;stroke-opacity:1"
           id="path2213"
           inkscape:connector-curvature="0" />
      </g>
      <path
         d="m 870.37693,-194.91274 c 0,0 -0.4105,-1.14936 -1.06728,-1.31356 -0.65679,-0.16419 -2.46293,0.41049 -3.28392,-0.41048 -0.821,-0.82098 -0.57465,-1.31355 -0.49257,-2.38082 0.0821,-1.06726 0.98521,-2.21662 1.72406,-2.21662 0.73886,0 0.73886,0 0.73886,0 0,0 2.1345,0.41048 2.79128,1.14936 0.65679,0.73887 0.65679,0.73887 0.65679,0.73887 l 0.0821,0 c 0,0 1.11696,0.90229 1.39564,2.46291 l 0.4105,2.29873 -2.9555,-0.32839 z"
         style="fill:#baaa13;fill-opacity:1;fill-rule:evenodd;stroke:#714f0c;stroke-width:0.693762px;stroke-linecap:butt;stroke-linejoin:miter;stroke-opacity:1"
         id="path2367"
         inkscape:connector-curvature="0" />
      <path
         d="m 935.3893,-194.7896 c 0,0 0.4105,-1.14936 1.06728,-1.31356 0.65679,-0.16419 2.46293,0.41049 3.28393,-0.41048 0.82092,-0.82097 0.57464,-1.31355 0.49257,-2.38081 -0.0821,-1.06727 -0.98521,-2.21663 -1.72407,-2.21663 -0.73886,0 -0.73886,0 -0.73886,0 0,0 -2.13449,0.41049 -2.79128,1.14936 -0.65678,0.73887 -0.65678,0.73887 -0.65678,0.73887 l -0.0821,0 c 0,0 -1.11696,0.90229 -1.39565,2.46292 l -0.41049,2.29872 2.95549,-0.32839 z"
         style="fill:#baaa13;fill-opacity:1;fill-rule:evenodd;stroke:#714f0c;stroke-width:0.693762px;stroke-linecap:butt;stroke-linejoin:miter;stroke-opacity:1"
         id="path2369"
         inkscape:connector-curvature="0" />
      <path
         d="m 902.74357,-131.19911 c -7e-5,0 0.0868,0 0.0867,0 -7e-5,0 3.9552,-2.10067 8.71538,-4.42273 4.76025,-2.32206 10.1999,-0.91882 12.98639,-2.42817 2.7865,-1.50932 7.79137,-6.14429 9.30072,-9.27906 1.50928,-3.13479 0.93227,-6.39562 0.93227,-6.39562 -7e-5,1e-5 -0.23997,-38.31694 0.10837,-39.82628 0.30206,-1.30887 1.12979,-2.27305 1.19244,-2.88344 0,-0.0163 -2.1e-4,-0.0493 0,-0.065 -2.1e-4,-0.0104 0,-0.0332 0,-0.0434 0,-0.0101 0,-0.0335 0,-0.0434 0,-0.01 -0.0194,-0.0339 -0.0215,-0.0434 0,-0.009 0,-0.0342 0,-0.0434 -0.007,-0.009 -0.0173,-0.0344 -0.0215,-0.0434 0,-0.004 -0.0187,-0.0173 -0.0215,-0.0216 -0.007,-0.009 -0.0153,-0.0348 -0.0215,-0.0434 -0.007,-0.004 -0.018,-0.0174 -0.0215,-0.0216 -0.008,-0.008 -0.0347,-0.0351 -0.043,-0.0434 -0.007,-0.004 -0.0167,-0.0176 -0.0215,-0.0217 -0.0146,-0.012 -0.0486,-0.0317 -0.0652,-0.0434 -0.0222,-0.0153 -0.0617,-0.0504 -0.0867,-0.065 -0.35639,-0.2016 -0.95566,-0.33527 -1.5176,-0.30352 -0.48161,0.0272 -0.95282,0.17219 -1.21409,0.47696 -0.69667,0.81272 -1.14276,2.10067 -0.91056,4.42273 0.2322,2.32206 0,38.76395 0,38.76395 0,0 0.33432,1.9783 -0.13008,4.18425 -0.4644,2.20596 -7.54466,8.36851 -7.54466,8.36851 0,-1e-5 -1.04606,1.38752 -3.25201,1.38752 -2.20596,1e-5 -3.82735,-0.12523 -6.2655,0.45528 -2.43816,0.58052 -12.07583,4.53114 -12.07583,4.53114 0,0 -0.0867,0 -0.0867,0 0,0 -9.63768,-3.95062 -12.07576,-4.53114 -2.43823,-0.58051 -4.05962,-0.45527 -6.26558,-0.45528 -1.99914,0 -3.05186,-1.1513 -3.23029,-1.36584 -0.008,-0.0102 -0.0215,-0.0216 -0.0215,-0.0216 0,0 -7.08026,-6.16255 -7.54466,-8.3685 -0.4644,-2.20596 -0.10844,-4.18425 -0.10837,-4.18425 0,0 -0.23227,-36.4419 0,-38.76395 0.23214,-2.32206 -0.23567,-3.61002 -0.93227,-4.42274 -0.32656,-0.38096 -0.95698,-0.51055 -1.56097,-0.47696 -0.42278,0.0235 -0.84757,0.13489 -1.12736,0.28184 -0.0782,0.0426 -0.16283,0.10266 -0.2168,0.15176 -0.0298,0.0289 -0.0666,0.0777 -0.0867,0.1084 0,0.004 -0.0194,0.0172 -0.0215,0.0216 -0.007,0.009 0.007,0.0343 0,0.0434 -0.007,0.0136 -0.0173,0.0292 -0.0215,0.0434 0,0.01 -0.0201,0.0336 -0.0215,0.0434 0,0.01 0,0.0332 0,0.0434 0,0.0102 1.4e-4,0.0329 0,0.0434 1.4e-4,0.0158 0,0.0487 0,0.065 0.0624,0.6104 0.89037,1.57458 1.19237,2.88345 0.34833,1.50934 0.13008,39.82628 0.13008,39.82628 0,0 -0.59879,3.26083 0.91056,6.39562 1.50935,3.13477 6.51429,7.76973 9.30078,9.27906 2.7865,1.50934 8.24779,0.10611 13.00804,2.42817 4.76018,2.32206 8.69374,4.42273 8.69367,4.42273 z"
         style="fill:#9c580b;fill-opacity:1;fill-rule:evenodd;stroke:#714f0c;stroke-width:0.693762px;stroke-linecap:butt;stroke-linejoin:miter;stroke-opacity:1"
         id="path2362"
         inkscape:connector-curvature="0" />
      <g
         transform="matrix(0.693762,0,0,0.693762,171.83276,-331.34944)"
         id="g2417">
        <rect
           width="20.590483"
           height="6.3901501"
           x="1043.3142"
           y="199.50218"
           style="color:#000000;fill:#72570f;fill-opacity:1;fill-rule:evenodd;stroke:none;stroke-width:0.35433099;marker:none;visibility:visible;display:inline;overflow:visible"
           id="rect2408" />
        <g
           transform="translate(-0.410305,0)"
           id="g2384">
          <path
             d="m 1042.1875,204.34375 0,5.21875 c 0.082,0.003 0.7969,0.0531 1.9063,0.71875 0.1371,0.0864 0.2909,0.21634 0.4062,0.34375 0.8426,0.95942 1.125,2.84375 1.125,2.84375 0,0 -4.0399,13.61328 -4.75,15.625 l 12.0938,1.125 0,0.28125 1.5312,-0.15625 1.5313,0.15625 0,-0.28125 12.0625,-1.125 c -0.7102,-2.01172 -4.7188,-15.625 -4.7188,-15.625 0,0 0.3479,-2.47749 1.5313,-3.1875 1.0353,-0.62127 1.7228,-0.70904 1.875,-0.71875 0.01,-1.7e-4 0.031,0 0.031,0 l 0,-5.21875 -10.7812,0 -3.0625,0 -10.7813,0 z"
             style="fill:#983f0a;fill-opacity:1;fill-rule:evenodd;stroke:none"
             id="path2379"
             inkscape:connector-curvature="0" />
          <path
             d="m 1057.2148,228.84953 0,-11.00525 c 0,0 0.71,-2.48506 -2.9584,-2.36673 -3.6684,0.11834 -2.6034,3.07674 -2.6034,3.07674 l 0,10.53192 5.5618,-0.23668 z"
             style="fill:#2d2714;fill-opacity:1;fill-rule:evenodd;stroke:#000000;stroke-width:1px;stroke-linecap:butt;stroke-linejoin:miter;stroke-opacity:1"
             id="path2377"
             inkscape:connector-curvature="0" />
          <rect
             width="35.500835"
             height="5.206789"
             x="1036.2693"
             y="227.66617"
             style="color:#000000;fill:#983f0a;fill-opacity:1;fill-rule:evenodd;stroke:none;stroke-width:0.35433099;marker:none;visibility:visible;display:inline;overflow:visible"
             id="rect2375" />
        </g>
        <g
           id="g2410">
          <path
             d="m 1026.375,180.40625 c -2.3616,0.045 -3.9375,0.15625 -3.9375,0.15625 0,-1e-5 9.0924,6.74243 14.0625,9.9375 4.9701,3.19507 8.8837,4.63166 9.5938,4.75 0.6657,0.11093 1.1329,-0.21143 1.1875,-0.25 -1e-4,-1e-5 -0.4892,4.37914 0.8125,5.5625 1.3015,1.18336 3.5625,0 3.5625,0 l 1.9375,-0.125 1.9687,0.125 c 0,0 2.2296,1.18336 3.5313,0 1.3017,-1.18336 0.8437,-5.56251 0.8437,-5.5625 0.011,0.008 0.052,0.0389 0.094,0.0625 0.1779,0.0964 0.5833,0.27255 1.0937,0.1875 0.71,-0.11834 4.6237,-1.55493 9.5938,-4.75 4.9701,-3.19507 14.0624,-9.93751 14.0625,-9.9375 0,0 -14.7907,-0.94715 -21.0625,1.65625 -6.272,2.60339 -7.9375,6.15624 -7.9375,6.15625 -10e-5,0 -0.094,-3.55538 -0.094,-5.09375 0,-0.50478 -0.3644,-0.84877 -0.8437,-1.09375 0,0 -0.5382,-0.53259 -1.1875,-0.40625 -0.025,0.005 -0.069,-0.005 -0.094,0 l -1.1875,0.40625 c -0.1826,0.0933 -0.3659,0.21685 -0.5,0.34375 -0.2034,0.20182 -0.3437,0.44954 -0.3437,0.75 0,1.51707 -0.1219,4.9666 -0.125,5.0625 -0.205,-0.39956 -2.0264,-3.68432 -7.9063,-6.125 -4.2139,-1.74916 -12.2893,-1.90462 -17.125,-1.8125 z"
             style="fill:#e9e1e6;fill-opacity:1;fill-rule:evenodd;stroke:#000000;stroke-width:1px;stroke-linecap:butt;stroke-linejoin:miter;stroke-opacity:1"
             id="path2389"
             inkscape:connector-curvature="0" />
          <path
             d="m 1051.298,190.27196 c 0,0 0.5917,-2.01171 -5.5618,-5.9168 -6.1534,-3.9051 -20.3538,-3.19508 -20.3538,-3.19508 0,0 12.4253,1.53837 16.4487,3.66842 4.0235,2.13005 9.3486,5.68013 9.4669,5.44346 z"
             style="fill:#93866b;fill-opacity:1;fill-rule:evenodd;stroke:none"
             id="path2396"
             inkscape:connector-curvature="0" />
          <path
             d="m 1056.0469,190.27196 c 0,0 -0.5917,-2.01171 5.5618,-5.9168 6.1534,-3.9051 20.3538,-3.19508 20.3538,-3.19508 0,0 -12.4253,1.53837 -16.4487,3.66842 -4.0235,2.13005 -9.3486,5.68013 -9.4669,5.44346 z"
             style="fill:#93866b;fill-opacity:1;fill-rule:evenodd;stroke:none"
             id="path2400"
             inkscape:connector-curvature="0" />
          <path
             d="m 1051.1797,199.38384 c 0,0 -0.1183,-4.14176 0.355,-4.14176 0.4733,0 0.4733,4.37843 0.4733,4.37843 l -0.8283,-0.23667 z"
             style="fill:#93866b;fill-opacity:1;fill-rule:evenodd;stroke:none"
             id="path2402"
             inkscape:connector-curvature="0" />
          <path
             d="m 1055.3215,199.38384 c 0,0 -0.1183,-4.14176 0.355,-4.14176 0.4733,0 0.4733,4.37843 0.4733,4.37843 l -0.8283,-0.23667 z"
             style="fill:#93866b;fill-opacity:1;fill-rule:evenodd;stroke:none"
             id="path2406"
             inkscape:connector-curvature="0" />
        </g>
      </g>
      <g
         transform="matrix(0.693762,0,0,0.693762,171.6485,-331.34944)"
         id="g2472"
         style="fill:#ffcc00;fill-opacity:1">
        <path
           d="m 1045.9491,120.44208 -1.3886,0.38028 3.9834,34.20793 1.4126,-0.14484 -4.0074,-34.44337 z"
           style="fill:#ffcc00;fill-opacity:1;fill-rule:evenodd;stroke:none"
           id="path2430"
           inkscape:connector-curvature="0" />
        <path
           d="m 1038.5415,122.10193 -1.3201,0.57446 8.8221,33.28995 1.3775,-0.34486 -8.8795,-33.51955 z"
           style="fill:#ffcc00;fill-opacity:1;fill-rule:evenodd;stroke:none"
           id="path2432"
           inkscape:connector-curvature="0" />
        <path
           d="m 1028.995,125.45836 -1.2051,0.78761 14.2771,31.34027 1.3002,-0.57087 -14.3722,-31.55701 z"
           style="fill:#ffcc00;fill-opacity:1;fill-rule:evenodd;stroke:none"
           id="path2434"
           inkscape:connector-curvature="0" />
        <path
           d="m 1021.3416,129.06298 -1.1709,0.83774 15.5866,30.71009 1.275,-0.62521 -15.6907,-30.92262 z"
           style="fill:#ffcc00;fill-opacity:1;fill-rule:evenodd;stroke:none"
           id="path2436"
           inkscape:connector-curvature="0" />
        <path
           d="m 1013.0683,136.61185 -0.9091,1.11637 23.1198,25.52498 1.0654,-0.93874 -23.2761,-25.70261 z"
           style="fill:#ffcc00;fill-opacity:1;fill-rule:evenodd;stroke:none"
           id="path2438"
           inkscape:connector-curvature="0" />
        <path
           d="m 1003.6094,143.26479 -0.5887,1.31382 28.9453,18.66081 0.7857,-1.1828 -29.1423,-18.79183 z"
           style="fill:#ffcc00;fill-opacity:1;fill-rule:evenodd;stroke:none"
           id="path2440"
           inkscape:connector-curvature="0" />
        <path
           d="m 997.82889,151.45496 -0.35059,1.39633 31.7554,13.32833 0.5675,-1.30168 -31.97231,-13.42298 z"
           style="fill:#ffcc00;fill-opacity:1;fill-rule:evenodd;stroke:none"
           id="path2442"
           inkscape:connector-curvature="0" />
        <path
           d="m 992.676,159.05746 -0.11056,1.43543 33.54576,7.79306 0.3403,-1.37864 -33.7755,-7.84985 z"
           style="fill:#ffcc00;fill-opacity:1;fill-rule:evenodd;stroke:none"
           id="path2444"
           inkscape:connector-curvature="0" />
        <path
           d="m 989.63685,163.9791 0.0659,1.43817 34.24725,3.63006 0.1691,-1.40991 -34.48226,-3.65832 z"
           style="fill:#ffcc00;fill-opacity:1;fill-rule:evenodd;stroke:none"
           id="path2446"
           inkscape:connector-curvature="0" />
        <path
           d="m 988.99117,169.45348 0.2254,1.42192 34.43843,-0.20032 0.011,-1.41997 -34.67513,0.19837 z"
           style="fill:#ffcc00;fill-opacity:1;fill-rule:evenodd;stroke:none"
           id="path2448"
           inkscape:connector-curvature="0" />
        <path
           d="m 1052.6322,121.10452 -1.4207,0.23302 0.3853,34.43692 1.42,0.004 -0.3846,-34.67358 z"
           style="fill:#ffcc00;fill-opacity:1;fill-rule:evenodd;stroke:none"
           id="path2450"
           inkscape:connector-curvature="0" />
        <path
           d="m 1065.4166,122.72838 1.3437,0.51722 -7.384,33.63819 -1.391,-0.28537 7.4313,-33.87004 z"
           style="fill:#ffcc00;fill-opacity:1;fill-rule:evenodd;stroke:none"
           id="path2452"
           inkscape:connector-curvature="0" />
        <path
           d="m 1073.4495,125.59394 1.2561,0.70358 -12.1066,32.24098 -1.3361,-0.48087 12.1866,-32.46369 z"
           style="fill:#ffcc00;fill-opacity:1;fill-rule:evenodd;stroke:none"
           id="path2454"
           inkscape:connector-curvature="0" />
        <path
           d="m 1082.6126,129.88812 1.1203,0.90416 -17.3393,29.75562 -1.2366,-0.69802 17.4556,-29.96176 z"
           style="fill:#ffcc00;fill-opacity:1;fill-rule:evenodd;stroke:none"
           id="path2456"
           inkscape:connector-curvature="0" />
        <path
           d="m 1087.722,133.06605 1.1589,0.85438 -16.0238,30.48431 -1.2658,-0.64336 16.1307,-30.69533 z"
           style="fill:#ffcc00;fill-opacity:1;fill-rule:evenodd;stroke:none"
           id="path2458"
           inkscape:connector-curvature="0" />
        <path
           d="m 1058.7008,122.71925 1.3903,0.37391 -3.8268,34.2258 -1.4132,-0.13836 3.8497,-34.46135 z"
           style="fill:#ffcc00;fill-opacity:1;fill-rule:evenodd;stroke:none"
           id="path2460"
           inkscape:connector-curvature="0" />
        <path
           d="m 1092.5536,136.58152 1.1229,0.90113 -17.2591,29.80234 -1.2384,-0.69467 17.3746,-30.0088 z"
           style="fill:#ffcc00;fill-opacity:1;fill-rule:evenodd;stroke:none"
           id="path2462"
           inkscape:connector-curvature="0" />
        <path
           d="m 1099.4242,143.20872 0.972,1.06218 -21.612,26.81376 -1.1177,-0.87582 21.7577,-27.00012 z"
           style="fill:#ffcc00;fill-opacity:1;fill-rule:evenodd;stroke:none"
           id="path2464"
           inkscape:connector-curvature="0" />
        <path
           d="m 1105.0917,150.46401 0.7013,1.25742 -27.205,21.11738 -0.886,-1.10963 27.3897,-21.26517 z"
           style="fill:#ffcc00;fill-opacity:1;fill-rule:evenodd;stroke:none"
           id="path2466"
           inkscape:connector-curvature="0" />
        <path
           d="m 1110.4759,159.26089 0.1756,1.42901 -33.1583,9.3049 -0.4024,-1.36175 33.3851,-9.37216 z"
           style="fill:#ffcc00;fill-opacity:1;fill-rule:evenodd;stroke:none"
           id="path2468"
           inkscape:connector-curvature="0" />
        <path
           d="m 1114.7631,169.00196 -0.2075,1.42473 -34.4384,0.2308 -0.029,-1.41967 34.6749,-0.23586 z"
           style="fill:#ffcc00;fill-opacity:1;fill-rule:evenodd;stroke:none"
           id="path2470"
           inkscape:connector-curvature="0" />
      </g>
      <path
         d="m 876.94464,-211.57846 2.21664,-1.88823 c 0,0 11.98619,5.25422 23.06932,5.17212 11.08305,-0.0821 21.83782,-2.7913 22.57668,-3.61227 0.73886,-0.82097 2.21664,-0.0821 2.21664,-0.0821 l 1.47771,1.47775 c 0,0 -0.73886,-0.32839 -1.64193,-0.0821 -0.90307,0.24629 -2.46292,1.23146 -4.51535,1.80614 -2.05242,0.57468 -10.18005,2.7913 -19.12861,2.95549 -8.94856,0.1642 -21.83782,-4.76163 -23.23346,-4.92582 -1.39565,-0.1642 -1.55986,-0.32839 -1.55986,-0.32839 l -1.80614,0.49258 0.32836,-0.98517 z"
         style="fill:#9c580b;fill-opacity:1;fill-rule:evenodd;stroke:none"
         id="path2373"
         inkscape:connector-curvature="0" />
      <path
         d="m 859.44165,-143.62211 6.9662,-3.25088 c 0,0 14.46702,11.64963 20.20186,14.86116 8.70776,4.87632 12.19259,5.41392 17.64765,5.34073 5.4522,-0.0731 13.23573,-3.71529 16.83489,-5.92124 3.59917,-2.20596 15.32562,-11.95859 15.32562,-11.95859 0,0 2.32202,-1.62544 3.59917,-1.62544 1.27715,0 5.92126,2.78647 5.92126,2.78647 0,0 -6.0374,4.76021 -9.05602,7.31448 -3.0187,2.55426 -13.58407,10.68146 -18.22818,12.3069 -4.64412,1.62544 -9.86877,3.01867 -14.39674,3.13477 -4.52805,0.11611 -14.16454,-2.32206 -18.34425,-4.2958 -4.17971,-1.97375 -15.55775,-10.10095 -16.8349,-11.37808 -1.27715,-1.27713 -6.9662,-5.45683 -7.77894,-5.92124 -0.81275,-0.46442 -1.85762,-1.50934 -1.85762,-1.39324 z"
         style="fill:#575542;fill-opacity:1;fill-rule:evenodd;stroke:#2d2714;stroke-width:0.693762px;stroke-linecap:butt;stroke-linejoin:miter;stroke-opacity:1"
         id="path2360"
         inkscape:connector-curvature="0" />
      <rect
         width="61.244434"
         height="1.8061361"
         x="872.16473"
         y="-171.02249"
         style="color:#000000;fill:#7a6a10;fill-opacity:1;fill-rule:evenodd;stroke:none;stroke-width:0.35433099;marker:none;visibility:visible;display:inline;overflow:visible"
         id="rect2495" />
      <g
         transform="matrix(0.693762,0,0,0.693762,103.81864,-326.09523)"
         id="g2562">
        <g
           transform="translate(0,-0.121817)"
           id="g2525">
          <path
             d="m 1120.2836,179.86355 c -2.0825,0.22002 -3.7188,2.31202 -3.7188,4.84375 0,2.67818 1.809,4.84375 4.0625,4.84375 2.2536,0 4.0938,-2.16557 4.0938,-4.84375 0,-2.67818 -1.8402,-4.84374 -4.0938,-4.84375 -0.1232,0 -0.2233,-0.0127 -0.3437,0 z m 0.2187,2.5 c 0.05,-0.005 0.074,0 0.125,0 1.0865,0 1.9688,1.05247 1.9688,2.34375 -10e-5,1.29128 -0.8822,2.34375 -1.9688,2.34375 -1.0866,0 -1.9687,-1.05247 -1.9687,-2.34375 0,-1.23075 0.8278,-2.25179 1.8437,-2.34375 z"
             style="color:#000000;fill:#4d330a;fill-opacity:1;fill-rule:evenodd;stroke:#2d2714;stroke-width:0.35433099;stroke-linecap:butt;stroke-linejoin:miter;stroke-miterlimit:4;stroke-opacity:1;stroke-dasharray:none;stroke-dashoffset:0;marker:none;visibility:visible;display:inline;overflow:visible"
             id="path2497"
             inkscape:connector-curvature="0" />
          <path
             d="m 1120.2836,186.94118 c -2.0825,0.22002 -3.7188,2.31202 -3.7188,4.84375 0,2.67818 1.809,4.84375 4.0625,4.84375 2.2536,0 4.0938,-2.16557 4.0938,-4.84375 0,-2.67818 -1.8402,-4.84374 -4.0938,-4.84375 -0.1232,0 -0.2233,-0.0127 -0.3437,0 z m 0.2187,2.5 c 0.05,-0.005 0.074,0 0.125,0 1.0865,0 1.9688,1.05247 1.9688,2.34375 -10e-5,1.29128 -0.8822,2.34375 -1.9688,2.34375 -1.0866,0 -1.9687,-1.05247 -1.9687,-2.34375 0,-1.23075 0.8278,-2.25179 1.8437,-2.34375 z"
             style="color:#000000;fill:#4d330a;fill-opacity:1;fill-rule:evenodd;stroke:#2d2714;stroke-width:0.35433099;stroke-linecap:butt;stroke-linejoin:miter;stroke-miterlimit:4;stroke-opacity:1;stroke-dasharray:none;stroke-dashoffset:0;marker:none;visibility:visible;display:inline;overflow:visible"
             id="path2502"
             inkscape:connector-curvature="0" />
          <path
             d="m 1120.2836,194.01882 c -2.0825,0.22002 -3.7188,2.31202 -3.7188,4.84375 0,2.67818 1.809,4.84375 4.0625,4.84375 2.2536,0 4.0938,-2.16557 4.0938,-4.84375 0,-2.67818 -1.8402,-4.84374 -4.0938,-4.84375 -0.1232,0 -0.2233,-0.0127 -0.3437,0 z m 0.2187,2.5 c 0.05,-0.005 0.074,0 0.125,0 1.0865,0 1.9688,1.05247 1.9688,2.34375 -10e-5,1.29128 -0.8822,2.34375 -1.9688,2.34375 -1.0866,0 -1.9687,-1.05247 -1.9687,-2.34375 0,-1.23075 0.8278,-2.25179 1.8437,-2.34375 z"
             style="color:#000000;fill:#4d330a;fill-opacity:1;fill-rule:evenodd;stroke:#2d2714;stroke-width:0.35433099;stroke-linecap:butt;stroke-linejoin:miter;stroke-miterlimit:4;stroke-opacity:1;stroke-dasharray:none;stroke-dashoffset:0;marker:none;visibility:visible;display:inline;overflow:visible"
             id="path2504"
             inkscape:connector-curvature="0" />
          <path
             d="m 1120.2836,201.09646 c -2.0825,0.22002 -3.7188,2.31202 -3.7188,4.84375 0,2.67818 1.809,4.84375 4.0625,4.84375 2.2536,0 4.0938,-2.16557 4.0938,-4.84375 0,-2.67818 -1.8402,-4.84374 -4.0938,-4.84375 -0.1232,0 -0.2233,-0.0127 -0.3437,0 z m 0.2187,2.5 c 0.05,-0.005 0.074,0 0.125,0 1.0865,0 1.9688,1.05247 1.9688,2.34375 -10e-5,1.29128 -0.8822,2.34375 -1.9688,2.34375 -1.0866,0 -1.9687,-1.05247 -1.9687,-2.34375 0,-1.23075 0.8278,-2.25179 1.8437,-2.34375 z"
             style="color:#000000;fill:#4d330a;fill-opacity:1;fill-rule:evenodd;stroke:#2d2714;stroke-width:0.35433099;stroke-linecap:butt;stroke-linejoin:miter;stroke-miterlimit:4;stroke-opacity:1;stroke-dasharray:none;stroke-dashoffset:0;marker:none;visibility:visible;display:inline;overflow:visible"
             id="path2506"
             inkscape:connector-curvature="0" />
          <path
             d="m 1120.2836,208.17409 c -2.0825,0.22002 -3.7188,2.31202 -3.7188,4.84375 0,2.67818 1.809,4.84375 4.0625,4.84375 2.2536,0 4.0938,-2.16557 4.0938,-4.84375 0,-2.67818 -1.8402,-4.84374 -4.0938,-4.84375 -0.1232,0 -0.2233,-0.0127 -0.3437,0 z m 0.2187,2.5 c 0.05,-0.005 0.074,0 0.125,0 1.0865,0 1.9688,1.05247 1.9688,2.34375 -10e-5,1.29128 -0.8822,2.34375 -1.9688,2.34375 -1.0866,0 -1.9687,-1.05247 -1.9687,-2.34375 0,-1.23075 0.8278,-2.25179 1.8437,-2.34375 z"
             style="color:#000000;fill:#4d330a;fill-opacity:1;fill-rule:evenodd;stroke:#2d2714;stroke-width:0.35433099;stroke-linecap:butt;stroke-linejoin:miter;stroke-miterlimit:4;stroke-opacity:1;stroke-dasharray:none;stroke-dashoffset:0;marker:none;visibility:visible;display:inline;overflow:visible"
             id="path2508"
             inkscape:connector-curvature="0" />
          <path
             d="m 1120.1875,215.25 c -2.0359,0.27383 -3.625,2.35158 -3.625,4.84375 0,0.0837 0,0.16736 0,0.25 l 2.0938,0 c -0.01,-0.0786 0,-0.1693 0,-0.25 0,-1.23074 0.8278,-2.25179 1.8437,-2.34375 0.01,-5.6e-4 0.026,3.1e-4 0.031,0 0.03,-6.3e-4 0.055,0 0.094,0 1.0865,1e-5 1.9687,1.05247 1.9688,2.34375 -1e-4,0.0807 0.01,0.17136 0,0.25 l 2.125,0 c 0,-0.0826 0,-0.16631 0,-0.25 0,-2.67817 -1.8402,-4.84374 -4.0938,-4.84375 -0.1078,1e-5 -0.211,-0.006 -0.3125,0 -0.01,6.1e-4 -0.024,-8e-4 -0.031,0 -0.033,0.003 -0.062,-0.004 -0.094,0 z"
             style="color:#000000;fill:#4d330a;fill-opacity:1;fill-rule:evenodd;stroke:#2d2714;stroke-width:0.35433099;stroke-linecap:butt;stroke-linejoin:miter;stroke-miterlimit:4;stroke-opacity:1;stroke-dasharray:none;stroke-dashoffset:0;marker:none;visibility:visible;display:inline;overflow:visible"
             id="path2510"
             inkscape:connector-curvature="0" />
          <rect
             width="2.0708821"
             height="3.6684196"
             x="1119.6075"
             y="186.42604"
             style="color:#000000;fill:#4d330a;fill-opacity:1;fill-rule:evenodd;stroke:#2d2714;stroke-width:0.35433099;stroke-linecap:butt;stroke-linejoin:miter;stroke-miterlimit:4;stroke-opacity:1;stroke-dasharray:none;stroke-dashoffset:0;marker:none;visibility:visible;display:inline;overflow:visible"
             id="rect2512" />
          <rect
             width="2.0708821"
             height="3.6684196"
             x="1119.6075"
             y="193.76288"
             style="color:#000000;fill:#4d330a;fill-opacity:1;fill-rule:evenodd;stroke:#2d2714;stroke-width:0.35433099;stroke-linecap:butt;stroke-linejoin:miter;stroke-miterlimit:4;stroke-opacity:1;stroke-dasharray:none;stroke-dashoffset:0;marker:none;visibility:visible;display:inline;overflow:visible"
             id="rect2514" />
          <rect
             width="2.0708821"
             height="3.6684196"
             x="1119.6075"
             y="200.50804"
             style="color:#000000;fill:#4d330a;fill-opacity:1;fill-rule:evenodd;stroke:#2d2714;stroke-width:0.35433099;stroke-linecap:butt;stroke-linejoin:miter;stroke-miterlimit:4;stroke-opacity:1;stroke-dasharray:none;stroke-dashoffset:0;marker:none;visibility:visible;display:inline;overflow:visible"
             id="rect2516" />
          <rect
             width="2.0708821"
             height="3.6684196"
             x="1119.6075"
             y="207.84486"
             style="color:#000000;fill:#4d330a;fill-opacity:1;fill-rule:evenodd;stroke:#2d2714;stroke-width:0.35433099;stroke-linecap:butt;stroke-linejoin:miter;stroke-miterlimit:4;stroke-opacity:1;stroke-dasharray:none;stroke-dashoffset:0;marker:none;visibility:visible;display:inline;overflow:visible"
             id="rect2518" />
          <rect
             width="2.0708821"
             height="3.6684196"
             x="1119.6075"
             y="215.1817"
             style="color:#000000;fill:#4d330a;fill-opacity:1;fill-rule:evenodd;stroke:#2d2714;stroke-width:0.35433099;stroke-linecap:butt;stroke-linejoin:miter;stroke-miterlimit:4;stroke-opacity:1;stroke-dasharray:none;stroke-dashoffset:0;marker:none;visibility:visible;display:inline;overflow:visible"
             id="rect2520" />
        </g>
        <g
           transform="translate(62.0101,-0.121817)"
           id="g2538">
          <path
             d="m 1120.2836,179.86355 c -2.0825,0.22002 -3.7188,2.31202 -3.7188,4.84375 0,2.67818 1.809,4.84375 4.0625,4.84375 2.2536,0 4.0938,-2.16557 4.0938,-4.84375 0,-2.67818 -1.8402,-4.84374 -4.0938,-4.84375 -0.1232,0 -0.2233,-0.0127 -0.3437,0 z m 0.2187,2.5 c 0.05,-0.005 0.074,0 0.125,0 1.0865,0 1.9688,1.05247 1.9688,2.34375 -10e-5,1.29128 -0.8822,2.34375 -1.9688,2.34375 -1.0866,0 -1.9687,-1.05247 -1.9687,-2.34375 0,-1.23075 0.8278,-2.25179 1.8437,-2.34375 z"
             style="color:#000000;fill:#4d330a;fill-opacity:1;fill-rule:evenodd;stroke:#2d2714;stroke-width:0.35433099;stroke-linecap:butt;stroke-linejoin:miter;stroke-miterlimit:4;stroke-opacity:1;stroke-dasharray:none;stroke-dashoffset:0;marker:none;visibility:visible;display:inline;overflow:visible"
             id="path2540"
             inkscape:connector-curvature="0" />
          <path
             d="m 1120.2836,186.94118 c -2.0825,0.22002 -3.7188,2.31202 -3.7188,4.84375 0,2.67818 1.809,4.84375 4.0625,4.84375 2.2536,0 4.0938,-2.16557 4.0938,-4.84375 0,-2.67818 -1.8402,-4.84374 -4.0938,-4.84375 -0.1232,0 -0.2233,-0.0127 -0.3437,0 z m 0.2187,2.5 c 0.05,-0.005 0.074,0 0.125,0 1.0865,0 1.9688,1.05247 1.9688,2.34375 -10e-5,1.29128 -0.8822,2.34375 -1.9688,2.34375 -1.0866,0 -1.9687,-1.05247 -1.9687,-2.34375 0,-1.23075 0.8278,-2.25179 1.8437,-2.34375 z"
             style="color:#000000;fill:#4d330a;fill-opacity:1;fill-rule:evenodd;stroke:#2d2714;stroke-width:0.35433099;stroke-linecap:butt;stroke-linejoin:miter;stroke-miterlimit:4;stroke-opacity:1;stroke-dasharray:none;stroke-dashoffset:0;marker:none;visibility:visible;display:inline;overflow:visible"
             id="path2542"
             inkscape:connector-curvature="0" />
          <path
             d="m 1120.2836,194.01882 c -2.0825,0.22002 -3.7188,2.31202 -3.7188,4.84375 0,2.67818 1.809,4.84375 4.0625,4.84375 2.2536,0 4.0938,-2.16557 4.0938,-4.84375 0,-2.67818 -1.8402,-4.84374 -4.0938,-4.84375 -0.1232,0 -0.2233,-0.0127 -0.3437,0 z m 0.2187,2.5 c 0.05,-0.005 0.074,0 0.125,0 1.0865,0 1.9688,1.05247 1.9688,2.34375 -10e-5,1.29128 -0.8822,2.34375 -1.9688,2.34375 -1.0866,0 -1.9687,-1.05247 -1.9687,-2.34375 0,-1.23075 0.8278,-2.25179 1.8437,-2.34375 z"
             style="color:#000000;fill:#4d330a;fill-opacity:1;fill-rule:evenodd;stroke:#2d2714;stroke-width:0.35433099;stroke-linecap:butt;stroke-linejoin:miter;stroke-miterlimit:4;stroke-opacity:1;stroke-dasharray:none;stroke-dashoffset:0;marker:none;visibility:visible;display:inline;overflow:visible"
             id="path2544"
             inkscape:connector-curvature="0" />
          <path
             d="m 1120.2836,201.09646 c -2.0825,0.22002 -3.7188,2.31202 -3.7188,4.84375 0,2.67818 1.809,4.84375 4.0625,4.84375 2.2536,0 4.0938,-2.16557 4.0938,-4.84375 0,-2.67818 -1.8402,-4.84374 -4.0938,-4.84375 -0.1232,0 -0.2233,-0.0127 -0.3437,0 z m 0.2187,2.5 c 0.05,-0.005 0.074,0 0.125,0 1.0865,0 1.9688,1.05247 1.9688,2.34375 -10e-5,1.29128 -0.8822,2.34375 -1.9688,2.34375 -1.0866,0 -1.9687,-1.05247 -1.9687,-2.34375 0,-1.23075 0.8278,-2.25179 1.8437,-2.34375 z"
             style="color:#000000;fill:#4d330a;fill-opacity:1;fill-rule:evenodd;stroke:#2d2714;stroke-width:0.35433099;stroke-linecap:butt;stroke-linejoin:miter;stroke-miterlimit:4;stroke-opacity:1;stroke-dasharray:none;stroke-dashoffset:0;marker:none;visibility:visible;display:inline;overflow:visible"
             id="path2546"
             inkscape:connector-curvature="0" />
          <path
             d="m 1120.2836,208.17409 c -2.0825,0.22002 -3.7188,2.31202 -3.7188,4.84375 0,2.67818 1.809,4.84375 4.0625,4.84375 2.2536,0 4.0938,-2.16557 4.0938,-4.84375 0,-2.67818 -1.8402,-4.84374 -4.0938,-4.84375 -0.1232,0 -0.2233,-0.0127 -0.3437,0 z m 0.2187,2.5 c 0.05,-0.005 0.074,0 0.125,0 1.0865,0 1.9688,1.05247 1.9688,2.34375 -10e-5,1.29128 -0.8822,2.34375 -1.9688,2.34375 -1.0866,0 -1.9687,-1.05247 -1.9687,-2.34375 0,-1.23075 0.8278,-2.25179 1.8437,-2.34375 z"
             style="color:#000000;fill:#4d330a;fill-opacity:1;fill-rule:evenodd;stroke:#2d2714;stroke-width:0.35433099;stroke-linecap:butt;stroke-linejoin:miter;stroke-miterlimit:4;stroke-opacity:1;stroke-dasharray:none;stroke-dashoffset:0;marker:none;visibility:visible;display:inline;overflow:visible"
             id="path2548"
             inkscape:connector-curvature="0" />
          <path
             d="m 1120.1875,215.25 c -2.0359,0.27383 -3.625,2.35158 -3.625,4.84375 0,0.0837 0,0.16736 0,0.25 l 2.0938,0 c -0.01,-0.0786 0,-0.1693 0,-0.25 0,-1.23074 0.8278,-2.25179 1.8437,-2.34375 0.01,-5.6e-4 0.026,3.1e-4 0.031,0 0.03,-6.3e-4 0.055,0 0.094,0 1.0865,1e-5 1.9687,1.05247 1.9688,2.34375 -1e-4,0.0807 0.01,0.17136 0,0.25 l 2.125,0 c 0,-0.0826 0,-0.16631 0,-0.25 0,-2.67817 -1.8402,-4.84374 -4.0938,-4.84375 -0.1078,1e-5 -0.211,-0.006 -0.3125,0 -0.01,6.1e-4 -0.024,-8e-4 -0.031,0 -0.033,0.003 -0.062,-0.004 -0.094,0 z"
             style="color:#000000;fill:#4d330a;fill-opacity:1;fill-rule:evenodd;stroke:#2d2714;stroke-width:0.35433099;stroke-linecap:butt;stroke-linejoin:miter;stroke-miterlimit:4;stroke-opacity:1;stroke-dasharray:none;stroke-dashoffset:0;marker:none;visibility:visible;display:inline;overflow:visible"
             id="path2550"
             inkscape:connector-curvature="0" />
          <rect
             width="2.0708821"
             height="3.6684196"
             x="1119.6075"
             y="186.42604"
             style="color:#000000;fill:#4d330a;fill-opacity:1;fill-rule:evenodd;stroke:#2d2714;stroke-width:0.35433099;stroke-linecap:butt;stroke-linejoin:miter;stroke-miterlimit:4;stroke-opacity:1;stroke-dasharray:none;stroke-dashoffset:0;marker:none;visibility:visible;display:inline;overflow:visible"
             id="rect2552" />
          <rect
             width="2.0708821"
             height="3.6684196"
             x="1119.6075"
             y="193.76288"
             style="color:#000000;fill:#4d330a;fill-opacity:1;fill-rule:evenodd;stroke:#2d2714;stroke-width:0.35433099;stroke-linecap:butt;stroke-linejoin:miter;stroke-miterlimit:4;stroke-opacity:1;stroke-dasharray:none;stroke-dashoffset:0;marker:none;visibility:visible;display:inline;overflow:visible"
             id="rect2554" />
          <rect
             width="2.0708821"
             height="3.6684196"
             x="1119.6075"
             y="200.50804"
             style="color:#000000;fill:#4d330a;fill-opacity:1;fill-rule:evenodd;stroke:#2d2714;stroke-width:0.35433099;stroke-linecap:butt;stroke-linejoin:miter;stroke-miterlimit:4;stroke-opacity:1;stroke-dasharray:none;stroke-dashoffset:0;marker:none;visibility:visible;display:inline;overflow:visible"
             id="rect2556" />
          <rect
             width="2.0708821"
             height="3.6684196"
             x="1119.6075"
             y="207.84486"
             style="color:#000000;fill:#4d330a;fill-opacity:1;fill-rule:evenodd;stroke:#2d2714;stroke-width:0.35433099;stroke-linecap:butt;stroke-linejoin:miter;stroke-miterlimit:4;stroke-opacity:1;stroke-dasharray:none;stroke-dashoffset:0;marker:none;visibility:visible;display:inline;overflow:visible"
             id="rect2558" />
          <rect
             width="2.0708821"
             height="3.6684196"
             x="1119.6075"
             y="215.1817"
             style="color:#000000;fill:#4d330a;fill-opacity:1;fill-rule:evenodd;stroke:#2d2714;stroke-width:0.35433099;stroke-linecap:butt;stroke-linejoin:miter;stroke-miterlimit:4;stroke-opacity:1;stroke-dasharray:none;stroke-dashoffset:0;marker:none;visibility:visible;display:inline;overflow:visible"
             id="rect2560" />
        </g>
      </g>
    </g>
  </g>
</svg>
